<svg width="76" height="39" viewBox="0 0 76 39" fill="none" xmlns="http://www.w3.org/2000/svg">
<path d="M2.22188 22.8059C4.69411 10.2961 15.6665 1.27993 28.4182 1.27993H70.5038C72.4784 1.27993 74.0791 2.88064 74.0791 4.85522V27.8584C74.0791 29.833 72.4784 31.4337 70.5038 31.4337H9.31146C4.75782 31.4337 1.33906 27.2732 2.22188 22.8059Z" stroke="#5D5D5D" stroke-width="0.849402" stroke-linejoin="round"/>
<circle cx="13.59" cy="33.8705" r="2.97291" stroke="#D8D8D8" stroke-width="0.849402"/>
<circle cx="22.9337" cy="33.8705" r="2.97291" stroke="#D8D8D8" stroke-width="0.849402"/>
<path fill-rule="evenodd" clip-rule="evenodd" d="M13.5908 30.4729L22.9342 30.4729L20.3824 33.4521H16.106L13.5908 30.4729Z" fill="#D8D8D8"/>
<path d="M55.2845 33.8705C55.2845 35.5231 53.9829 36.8434 52.401 36.8434C50.8191 36.8434 49.5175 35.5231 49.5175 33.8705C49.5175 32.2179 50.8191 30.8976 52.401 30.8976C53.9829 30.8976 55.2845 32.2179 55.2845 33.8705Z" stroke="#D8D8D8" stroke-width="0.849402"/>
<path d="M64.3821 33.8705C64.3821 35.5231 63.0805 36.8434 61.4986 36.8434C59.9167 36.8434 58.6151 35.5231 58.6151 33.8705C58.6151 32.2179 59.9167 30.8976 61.4986 30.8976C63.0805 30.8976 64.3821 32.2179 64.3821 33.8705Z" stroke="#D8D8D8" stroke-width="0.849402"/>
<path fill-rule="evenodd" clip-rule="evenodd" d="M52.4014 30.4729L61.4989 30.4729L59.0142 33.4521H54.8503L52.4014 30.4729Z" fill="#D8D8D8"/>
<g clip-path="url(#clip0)">
<rect x="25.0576" y="14.4458" width="25.4821" height="10.1928" rx="1.6988" fill="#D8D8D8"/>
<path d="M27.8428 21.2952V16.4642H29.2695C29.6964 16.4642 30.0747 16.5593 30.4043 16.7495C30.7361 16.9398 30.9927 17.2096 31.174 17.5591C31.3554 17.9086 31.4461 18.309 31.4461 18.7602V19.0024C31.4461 19.4603 31.3543 19.8629 31.1707 20.2102C30.9893 20.5575 30.7294 20.8251 30.391 21.0131C30.0548 21.2012 29.6688 21.2952 29.233 21.2952H27.8428ZM28.6822 17.1411V20.6249H29.2297C29.6699 20.6249 30.0072 20.4878 30.2417 20.2135C30.4784 19.937 30.5989 19.5411 30.6034 19.0257V18.7569C30.6034 18.2327 30.4894 17.8323 30.2616 17.5558C30.0338 17.2793 29.7031 17.1411 29.2695 17.1411H28.6822ZM33.3705 16.4642L34.7641 20.1671L36.1543 16.4642H37.2393V21.2952H36.4032V19.7025L36.4861 17.5724L35.0594 21.2952H34.4588L33.0354 17.5757L33.1184 19.7025V21.2952H32.2822V16.4642H33.3705ZM41.921 19.7224C41.8723 20.2378 41.6821 20.6404 41.3503 20.9302C41.0185 21.2177 40.5772 21.3615 40.0264 21.3615C39.6415 21.3615 39.302 21.2708 39.0078 21.0895C38.7158 20.9059 38.4902 20.6459 38.3309 20.3097C38.1717 19.9735 38.0887 19.5831 38.0821 19.1385V18.6872C38.0821 18.2316 38.1628 17.8301 38.3243 17.4828C38.4858 17.1355 38.7169 16.8679 39.0177 16.6799C39.3208 16.4918 39.6703 16.3978 40.0662 16.3978C40.5993 16.3978 41.0284 16.5427 41.3536 16.8325C41.6788 17.1223 41.8679 17.5315 41.921 18.0601H41.0848C41.045 17.7129 40.9433 17.4629 40.7796 17.3103C40.6181 17.1554 40.3803 17.078 40.0662 17.078C39.7012 17.078 39.4203 17.2118 39.2235 17.4795C39.0288 17.7449 38.9293 18.1353 38.9248 18.6507V19.0788C38.9248 19.6008 39.0177 19.9989 39.2035 20.2732C39.3916 20.5475 39.6659 20.6847 40.0264 20.6847C40.356 20.6847 40.6037 20.6106 40.7696 20.4624C40.9355 20.3142 41.0406 20.0675 41.0848 19.7224H41.921ZM45.3783 20.1704H43.507L43.1154 21.2952H42.2428L44.0677 16.4642H44.8209L46.6491 21.2952H45.7731L45.3783 20.1704ZM43.7425 19.4935H45.1427L44.4426 17.4894L43.7425 19.4935Z" fill="#5D5D5D"/>
</g>
<path d="M3.9771 13.628C5.17673 7.20714 10.3251 2.28155 16.7533 1.33904V8.02884C16.7533 16.1713 10.2888 22.8039 2.21222 23.0744L3.9771 13.628Z" fill="#2616E3" stroke="#5D5D5D" stroke-width="0.849402"/>
<defs>
<clipPath id="clip0">
<rect width="25.4821" height="10.1928" fill="white" transform="translate(25.0576 14.4458)"/>
</clipPath>
</defs>
</svg>
