<svg width="76" height="39" viewBox="0 0 76 39" fill="none" xmlns="http://www.w3.org/2000/svg">
<path d="M72.2768 14.2897C70.7826 6.72909 64.1512 1.27993 56.4443 1.27993H3.37665C2.67298 1.27993 2.10255 1.85036 2.10255 2.55403V30.1596C2.10255 30.8633 2.67299 31.4337 3.37665 31.4337H70.4964C73.1725 31.4337 75.1816 28.9886 74.6628 26.3633L72.2768 14.2897Z" stroke="#5D5D5D" stroke-width="0.849402" stroke-linejoin="round"/>
<circle cx="14.4181" cy="33.8705" r="2.97291" stroke="#D8D8D8" stroke-width="0.849402"/>
<circle cx="23.7619" cy="33.8705" r="2.97291" stroke="#D8D8D8" stroke-width="0.849402"/>
<path fill-rule="evenodd" clip-rule="evenodd" d="M14.4189 30.4729L23.7624 30.4729L21.2105 33.4521H16.9341L14.4189 30.4729Z" fill="#D8D8D8"/>
<path d="M56.1126 33.8705C56.1126 35.5231 54.811 36.8434 53.2291 36.8434C51.6472 36.8434 50.3456 35.5231 50.3456 33.8705C50.3456 32.2179 51.6472 30.8976 53.2291 30.8976C54.811 30.8976 56.1126 32.2179 56.1126 33.8705Z" stroke="#D8D8D8" stroke-width="0.849402"/>
<path d="M65.2102 33.8705C65.2102 35.5231 63.9087 36.8434 62.3268 36.8434C60.7448 36.8434 59.4433 35.5231 59.4433 33.8705C59.4433 32.2179 60.7448 30.8976 62.3268 30.8976C63.9087 30.8976 65.2102 32.2179 65.2102 33.8705Z" stroke="#D8D8D8" stroke-width="0.849402"/>
<path fill-rule="evenodd" clip-rule="evenodd" d="M53.2295 30.4729L62.327 30.4729L59.8423 33.4521H55.6784L53.2295 30.4729Z" fill="#D8D8D8"/>
<g clip-path="url(#clip0)">
<rect x="25.8857" y="14.4458" width="25.4821" height="10.1928" rx="1.6988" fill="#D8D8D8"/>
<path d="M28.6709 21.2952V16.4642H30.0977C30.5246 16.4642 30.9028 16.5593 31.2324 16.7495C31.5642 16.9398 31.8208 17.2096 32.0022 17.5591C32.1836 17.9086 32.2742 18.309 32.2742 18.7602V19.0024C32.2742 19.4603 32.1824 19.8629 31.9989 20.2102C31.8175 20.5575 31.5576 20.8251 31.2191 21.0131C30.8829 21.2012 30.4969 21.2952 30.0612 21.2952H28.6709ZM29.5104 17.1411V20.6249H30.0578C30.498 20.6249 30.8353 20.4878 31.0698 20.2135C31.3065 19.937 31.4271 19.5411 31.4315 19.0257V18.7569C31.4315 18.2327 31.3176 17.8323 31.0897 17.5558C30.8619 17.2793 30.5312 17.1411 30.0977 17.1411H29.5104ZM34.1987 16.4642L35.5922 20.1671L36.9825 16.4642H38.0674V21.2952H37.2313V19.7025L37.3143 17.5724L35.8875 21.2952H35.287L33.8636 17.5757L33.9465 19.7025V21.2952H33.1104V16.4642H34.1987ZM42.7491 19.7224C42.7004 20.2378 42.5102 20.6404 42.1784 20.9302C41.8466 21.2177 41.4053 21.3615 40.8545 21.3615C40.4696 21.3615 40.1301 21.2708 39.8359 21.0895C39.5439 20.9059 39.3183 20.6459 39.159 20.3097C38.9998 19.9735 38.9168 19.5831 38.9102 19.1385V18.6872C38.9102 18.2316 38.9909 17.8301 39.1524 17.4828C39.3139 17.1355 39.545 16.8679 39.8459 16.6799C40.1489 16.4918 40.4984 16.3978 40.8943 16.3978C41.4274 16.3978 41.8566 16.5427 42.1817 16.8325C42.5069 17.1223 42.696 17.5315 42.7491 18.0601H41.913C41.8732 17.7129 41.7714 17.4629 41.6077 17.3103C41.4462 17.1554 41.2084 17.078 40.8943 17.078C40.5294 17.078 40.2484 17.2118 40.0516 17.4795C39.8569 17.7449 39.7574 18.1353 39.753 18.6507V19.0788C39.753 19.6008 39.8459 19.9989 40.0317 20.2732C40.2197 20.5475 40.494 20.6847 40.8545 20.6847C41.1841 20.6847 41.4319 20.6106 41.5978 20.4624C41.7637 20.3142 41.8687 20.0675 41.913 19.7224H42.7491ZM46.2064 20.1704H44.3351L43.9436 21.2952H43.0709L44.8958 16.4642H45.649L47.4772 21.2952H46.6013L46.2064 20.1704ZM44.5707 19.4935H45.9709L45.2708 17.4894L44.5707 19.4935Z" fill="#5D5D5D"/>
</g>
<path d="M72.2124 14.4774C71.0127 8.0565 65.8644 3.13091 59.4361 2.1884V16.7124C59.4361 20.6998 62.6686 23.9323 66.6561 23.9323H73.9788L72.2124 14.4774Z" fill="#FF5050" stroke="#5D5D5D" stroke-width="0.849402"/>
<path d="M67.6516 14.8665C67.4332 15.1513 67.1304 15.367 66.7433 15.5135C66.3562 15.6601 65.9166 15.7333 65.4244 15.7333C64.9184 15.7333 64.4705 15.6186 64.0806 15.3891C63.6907 15.1596 63.3894 14.832 63.1765 14.4061C62.9663 13.9776 62.8571 13.4785 62.8488 12.9089V12.4361C62.8488 11.5237 63.0672 10.8117 63.5041 10.3002C63.941 9.78587 64.5507 9.52872 65.3331 9.52872C66.005 9.52872 66.5387 9.69462 66.9341 10.0264C67.3295 10.3582 67.5673 10.8366 67.6474 11.4614H66.6189C66.5027 10.7343 66.0811 10.3707 65.3539 10.3707C64.8838 10.3707 64.5258 10.5407 64.2797 10.8808C64.0364 11.2181 63.9106 11.7144 63.9023 12.3697V12.8343C63.9023 13.4868 64.0391 13.9942 64.3129 14.3564C64.5894 14.7158 64.9723 14.8956 65.4617 14.8956C65.9981 14.8956 66.3797 14.7739 66.6064 14.5306V13.3485H65.3622V12.5522H67.6516V14.8665Z" fill="#D8D8D8"/>
<defs>
<clipPath id="clip0">
<rect width="25.4821" height="10.1928" fill="white" transform="translate(25.8857 14.4458)"/>
</clipPath>
</defs>
</svg>
