<svg width="24" height="24" viewBox="0 0 24 24" fill="none" xmlns="http://www.w3.org/2000/svg">
<path fill-rule="evenodd" clip-rule="evenodd" d="M3.86666 9.50795C3.73939 9.38195 3.53332 9.38195 3.40605 9.50795C2.69696 10.21 2.30908 11.14 2.30908 12.136C2.30908 13.126 2.69696 14.062 3.40605 14.764C3.46666 14.824 3.55151 14.86 3.63635 14.86C3.7212 14.86 3.79999 14.83 3.86666 14.764C3.99393 14.638 3.99393 14.434 3.86666 14.308C3.27878 13.726 2.95757 12.958 2.95757 12.136C2.95757 11.314 3.27878 10.54 3.86666 9.96395C3.99393 9.83795 3.99393 9.63395 3.86666 9.50795Z" fill="#757575"/>
<path fill-rule="evenodd" clip-rule="evenodd" d="M4.99997 14.122C5.08481 14.122 5.1636 14.092 5.23027 14.026C5.35754 13.9 5.35754 13.696 5.23027 13.57C4.39997 12.748 4.39997 11.416 5.23027 10.594C5.35754 10.468 5.35754 10.264 5.23027 10.138C5.103 10.012 4.89694 10.012 4.76966 10.138C3.69087 11.206 3.69087 12.946 4.76966 14.02C4.83633 14.092 4.92118 14.122 4.99997 14.122Z" fill="#757575"/>
<path fill-rule="evenodd" clip-rule="evenodd" d="M20.6424 9.50795C20.5152 9.38195 20.3091 9.38195 20.1818 9.50795C20.0545 9.63395 20.0545 9.83795 20.1818 9.96395C20.7697 10.546 21.0909 11.314 21.0909 12.136C21.0909 12.958 20.7697 13.732 20.1818 14.308C20.0545 14.434 20.0545 14.638 20.1818 14.764C20.2424 14.824 20.3273 14.86 20.4121 14.86C20.497 14.86 20.5758 14.83 20.6424 14.764C21.3515 14.062 21.7394 13.132 21.7394 12.136C21.7394 11.14 21.3515 10.21 20.6424 9.50795Z" fill="#757575"/>
<path fill-rule="evenodd" clip-rule="evenodd" d="M18.8242 10.15C18.6969 10.276 18.6969 10.48 18.8242 10.606C19.6545 11.428 19.6545 12.76 18.8242 13.582C18.6969 13.708 18.6969 13.912 18.8242 14.038C18.8848 14.098 18.9697 14.134 19.0545 14.134C19.1394 14.134 19.2182 14.104 19.2848 14.038C20.3636 12.97 20.3636 11.23 19.2848 10.156C19.1575 10.024 18.9515 10.024 18.8242 10.15Z" fill="#757575"/>
<path fill-rule="evenodd" clip-rule="evenodd" d="M17.5394 9.41199V12.298C17.5394 14.278 18.303 16.036 19.8242 17.518C19.9091 17.602 19.9394 17.728 19.903 17.842C19.8666 17.956 19.7697 18.046 19.6485 18.064L16.5757 18.592C16 18.688 15.4727 18.766 14.9818 18.832C14.4121 19.93 13.303 20.632 12.0909 20.632C10.8727 20.632 9.76361 19.93 9.19997 18.832C8.703 18.766 8.18179 18.682 7.59997 18.586L4.52725 18.058C4.40603 18.034 4.30906 17.95 4.2727 17.836C4.23634 17.722 4.26664 17.596 4.35149 17.512C5.78785 16.096 6.52118 14.338 6.52118 12.292V9.40599C6.53331 7.38399 7.96967 5.82399 9.38785 5.17599C9.71512 5.03199 10.0545 4.91799 10.406 4.82799V4.59999C10.406 3.71799 11.1333 2.99799 12.0242 2.99799C12.9151 2.99799 13.6424 3.71799 13.6424 4.59999V4.79799C14.0303 4.89399 14.4121 5.01399 14.7757 5.17599C16.0606 5.75799 17.5515 7.21599 17.5394 9.41199ZM12.0242 3.64599C11.4909 3.64599 11.0545 4.07799 11.0545 4.60599H11.0485V4.68399C11.6909 4.58199 12.3515 4.57599 12.9939 4.66599V4.60599C12.9939 4.07799 12.5575 3.64599 12.0242 3.64599ZM8.46664 9.73598C8.28482 9.73598 8.13937 9.59198 8.14543 9.41198C8.15755 7.91198 9.35755 6.96398 10.0727 6.63998C11.3212 6.06998 12.8545 6.06998 14.1091 6.63998C14.2727 6.71198 14.3454 6.90398 14.2666 7.06598C14.1939 7.22798 14 7.29998 13.8363 7.22198C12.7515 6.72998 11.4182 6.72998 10.3394 7.22198C9.76967 7.48598 8.79997 8.24198 8.78785 9.41798C8.78785 9.59198 8.6424 9.73598 8.46664 9.73598ZM12.0848 19.99C12.903 19.99 13.6727 19.588 14.1636 18.928H14.1515C14.0969 18.934 14.0409 18.9385 13.9848 18.943C13.9288 18.9475 13.8727 18.952 13.8182 18.958C13.7454 18.964 13.6727 18.97 13.606 18.976C13.5788 18.979 13.5515 18.9805 13.5242 18.982C13.4969 18.9835 13.4697 18.985 13.4424 18.988C12.503 19.054 11.6363 19.054 10.6969 18.988C10.6485 18.988 10.606 18.988 10.5636 18.982L10.3818 18.964C10.3182 18.958 10.256 18.952 10.1939 18.946C10.1318 18.94 10.0697 18.934 10.006 18.928C10.4969 19.588 11.2666 19.99 12.0848 19.99Z" fill="#757575"/>
</svg>
