<svg width="24" height="24" viewBox="0 0 24 24" fill="none" xmlns="http://www.w3.org/2000/svg">
<path fill-rule="evenodd" clip-rule="evenodd" d="M12.0063 7.25818L4.89967 13.1423C4.89967 13.1506 4.8976 13.1628 4.89344 13.1795C4.88937 13.196 4.88721 13.208 4.88721 13.2165V19.1748C4.88721 19.39 4.96552 19.5764 5.1221 19.7334C5.27864 19.8905 5.464 19.9695 5.67825 19.9695H10.4241V15.2027H13.5885V19.9697H18.3343C18.5485 19.9697 18.7342 19.8908 18.8905 19.7334C19.0471 19.5766 19.1256 19.39 19.1256 19.1748V13.2165C19.1256 13.1835 19.1211 13.1585 19.1132 13.1423L12.0063 7.25818Z" fill="#757575"/>
<path fill-rule="evenodd" clip-rule="evenodd" d="M21.8321 11.8016L19.1255 9.54243V4.47778C19.1255 4.362 19.0884 4.26678 19.0141 4.19226C18.9403 4.11782 18.8455 4.0806 18.7299 4.0806H16.357C16.2415 4.0806 16.1468 4.11782 16.0725 4.19226C15.9985 4.26678 15.9615 4.36204 15.9615 4.47778V6.89834L12.9458 4.36595C12.6824 4.15078 12.3693 4.04321 12.0067 4.04321C11.6441 4.04321 11.331 4.15078 11.0673 4.36595L2.18055 11.8016C2.09817 11.8677 2.05302 11.9567 2.04462 12.0684C2.03627 12.1801 2.06506 12.2776 2.13107 12.3603L2.89735 13.2789C2.96337 13.3533 3.04977 13.3989 3.15692 13.4155C3.25583 13.4239 3.35475 13.3948 3.45367 13.3286L12.0064 6.16595L20.5592 13.3286C20.6253 13.3863 20.7116 13.4152 20.8188 13.4152H20.8559C20.9629 13.3988 21.0491 13.353 21.1155 13.2787L21.8819 12.3603C21.9477 12.2774 21.9766 12.18 21.968 12.0683C21.9596 11.9568 21.9143 11.8679 21.8321 11.8016Z" fill="#757575"/>
</svg>
