<svg width="24" height="24" viewBox="0 0 24 24" fill="none" xmlns="http://www.w3.org/2000/svg">
<path fill-rule="evenodd" clip-rule="evenodd" d="M15.1505 10.8676C15.5659 10.5904 16.056 10.4723 16.5357 10.5261L22.0001 5.0602L18.9399 2L13.4747 7.46593C13.53 7.95156 13.4075 8.44765 13.1191 8.86828L15.1505 10.8676Z" fill="#757575"/>
<path fill-rule="evenodd" clip-rule="evenodd" d="M5.61794 17.5244L5.41996 17.3264L4.3837 18.1639L2.63843 20.9141L3.08521 21.3609L5.8376 19.6156L6.67437 18.5823L6.47564 18.3814L9.95124 14.905L9.08757 14.0533L5.61794 17.5244Z" fill="#757575"/>
<path fill-rule="evenodd" clip-rule="evenodd" d="M9.2827 3.72064C10.4086 4.84879 10.7725 6.45211 10.3713 7.88658L20.3901 17.8943C21.1754 18.684 21.1754 19.9578 20.3901 20.7415C19.9957 21.1338 19.4816 21.3325 18.9661 21.3325C18.4514 21.3325 17.9359 21.1338 17.5429 20.7415L7.60691 10.8056L7.59346 10.7921C6.11416 11.2733 4.42268 10.9289 3.24896 9.75439C2.12902 8.63371 1.76294 7.04906 2.14845 5.62356L4.56314 8.03676L6.93151 7.4032L7.56507 5.03782L5.14963 2.62312C6.57588 2.23611 8.16053 2.60295 9.2827 3.72064ZM18.3739 19.635C18.3739 20.0594 18.7168 20.4038 19.1397 20.4038C19.5663 20.4038 19.9107 20.0594 19.91 19.635C19.91 19.2092 19.5655 18.8662 19.1397 18.8662C18.7168 18.8662 18.3739 19.2092 18.3739 19.635Z" fill="#757575"/>
</svg>
