<svg width="24" height="24" viewBox="0 0 24 24" fill="none" xmlns="http://www.w3.org/2000/svg">
<path fill-rule="evenodd" clip-rule="evenodd" d="M14.2365 10.1996H21.9998V4.04991C21.9998 2.92 21.0657 2 19.9165 2H6.58316C5.434 2 4.49983 2.92 4.49983 4.04991V8.26207C4.49983 8.40638 4.57733 8.54004 4.70316 8.61465C4.82816 8.68927 4.98566 8.69173 5.114 8.62285C6.20066 8.04478 7.429 7.73975 8.6665 7.73975C10.8398 7.73975 12.8457 8.67615 14.2365 10.1996ZM8.66667 8.55974C4.99083 8.55974 2 11.5026 2 15.1195C2 18.7363 4.99083 21.6792 8.66667 21.6792C12.0604 21.6792 14.8702 19.1708 15.2815 15.9394H16.5835C16.8135 15.9394 17.0002 15.7557 17.0002 15.5294C17.0002 15.3031 16.8135 15.1194 16.5835 15.1194H15.3333C15.3333 11.5026 12.3425 8.55974 8.66667 8.55974ZM7.61357 19.7539C7.53774 19.8154 7.44357 19.8482 7.34857 19.8482C7.30857 19.8482 7.26774 19.8425 7.22857 19.831C5.87274 19.4308 4.74857 18.4739 4.14357 17.2063C4.05024 17.0103 4.12691 16.7766 4.32024 16.6725C4.78357 16.4232 5.22024 16.2969 5.61857 16.2969C6.45024 16.2969 7.49774 16.8348 7.76274 19.3964C7.77774 19.5325 7.72107 19.667 7.61357 19.7539ZM10.1049 19.8301C11.4607 19.43 12.5841 18.4731 13.1899 17.2054C13.2832 17.0103 13.2057 16.7757 13.0132 16.6716C12.5499 16.4223 12.1132 16.2961 11.7149 16.2961C10.8832 16.2961 9.83572 16.8331 9.57072 19.3955C9.55656 19.5316 9.61239 19.6661 9.71989 19.753C9.79489 19.8145 9.88906 19.8473 9.98489 19.8473C10.0249 19.8473 10.0657 19.8416 10.1049 19.8301ZM13.2468 15.4687C13.2076 15.4687 13.1676 15.463 13.1284 15.4515C12.7941 15.3552 12.4288 15.2401 12.0514 15.1211L12.0513 15.1211L11.9784 15.0981L11.9739 15.0967C10.7908 14.7231 9.44909 14.2995 8.66676 14.2995C7.88537 14.2995 6.54593 14.7221 5.36309 15.0953L5.36307 15.0953L5.35426 15.0981L5.28141 15.1211C4.9039 15.2401 4.53862 15.3552 4.20426 15.4515C4.07592 15.4876 3.94009 15.4638 3.83509 15.3851C3.72926 15.3064 3.66842 15.1826 3.67009 15.053C3.70676 12.3766 5.94759 10.1996 8.66676 10.1996C11.3859 10.1996 13.6268 12.3766 13.6634 15.053C13.6651 15.1834 13.6043 15.3064 13.4984 15.3851C13.4251 15.44 13.3368 15.4687 13.2468 15.4687ZM15.894 13.1777C15.6757 12.3939 15.3315 11.669 14.889 11.0196H21.9998V11.4296C21.9998 12.5595 21.0657 13.4795 19.9165 13.4795H16.2957C16.1082 13.4795 15.9432 13.3557 15.894 13.1777Z" fill="#757575"/>
</svg>
