<svg width="50" height="50" viewBox="0 0 50 50" fill="none" xmlns="http://www.w3.org/2000/svg">
<circle cx="25" cy="25" r="21.875" stroke="#757575" stroke-width="2"/>
<path fill-rule="evenodd" clip-rule="evenodd" d="M34.3334 31.5867V20.3334C34.3334 16.6134 30.8534 15.8 26.32 15.68L27.3334 13.6667H31.6667V11.6667H18.3334V13.6667H24.6667L23.6534 15.6934C19.48 15.8134 15.6667 16.64 15.6667 20.3334V31.5867C15.6667 33.52 17.2534 35.1334 19.12 35.5467L17 37.6667V38.3334H19.9734L22.64 35.6667H27.6667L30.3334 38.3334H33V37.6667L31 35.6667H30.8934C33.1467 35.6667 34.3334 33.84 34.3334 31.5867ZM25 33.6667C23.8934 33.6667 23 32.7734 23 31.6667C23 30.56 23.8934 29.6667 25 29.6667C26.1067 29.6667 27 30.56 27 31.6667C27 32.7734 26.1067 33.6667 25 33.6667ZM18.3334 27.6667H31.6667V21H18.3334V27.6667Z" fill="#757575"/>
<path d="M46.875 24.875C46.875 12.7938 37.0812 3 25 3" stroke="#757575" stroke-width="2"/>
</svg>
