<svg width="24" height="24" viewBox="0 0 24 24" fill="none" xmlns="http://www.w3.org/2000/svg">
<path d="M0 2C0 0.89543 0.895431 0 2 0H22C23.1046 0 24 0.895431 24 2V22C24 23.1046 23.1046 24 22 24H2C0.89543 24 0 23.1046 0 22V2Z" fill="#333D3D"/>
<path fill-rule="evenodd" clip-rule="evenodd" d="M7.00002 10.0001H5V5H10.0001V7.00002H7.00002V10.0001ZM5 14.0001H7.00002V17.0001H10.0001V19.0001H5V14.0001ZM16.9999 17.0001H13.9998V19.0001H18.9999V14.0001H16.9999V17.0001ZM13.9998 7.00002V5H18.9999V10.0001H16.9999V7.00002H13.9998Z" fill="#008B98"/>
</svg>
