<?xml version="1.0" standalone="no"?>
<!DOCTYPE svg PUBLIC "-//W3C//DTD SVG 1.0//EN" "http://www.w3.org/TR/2001/REC-SVG-20010904/DTD/svg10.dtd">
<svg xmlns="http://www.w3.org/2000/svg" xmlns:xlink="http://www.w3.org/1999/xlink" id="body_1" width="1108" height="1300">

<g transform="matrix(21.307692 0 0 21.311476 0 0)">
	<g transform="matrix(1 0 0 1 0 0)">
	</g>
    <path transform="matrix(1 0 0 1 0 0)"  d="M10.7972 8.84745C 19.1935 0.451177 32.8065 0.451177 41.2028 8.84745C 49.5991 17.2437 49.5991 30.8568 41.2028 39.253L41.2028 39.253L26.301 54.1548C 26.1348 54.3211 25.8652 54.3211 25.699 54.1548L25.699 54.1548L10.7972 39.253C 2.40093 30.8568 2.40093 17.2437 10.7972 8.84745z" stroke="none" fill="#2E7D32" fill-rule="nonzero" />
	<g transform="matrix(1 0 0 1 0 0)">
	</g>
    <path transform="matrix(1 0 0 1 0 0)"  d="M44 24C 44 19.029438 42.24264 14.786797 38.72792 11.2720785C 35.213203 7.7573595 30.970566 6 26 6C 21.029438 6 16.786797 7.7573595 13.2720785 11.2720785C 9.75736 14.786797 8 19.029438 8 24C 8 28.970564 9.75736 33.213203 13.2720785 36.72792C 16.786797 40.24264 21.029438 42 26 42C 30.970566 42 35.213203 40.24264 38.72792 36.72792C 42.24264 33.213203 44 28.970564 44 24" stroke="none" fill="#E5FFE7" fill-rule="nonzero" />
	<g transform="matrix(1 0 0 1 0 0)">
	</g>
    <path transform="matrix(1 0 0 1 0 0)"  d="M33 28.94L33 20.5C 33 17.71 30.39 17.1 26.99 17.01L26.99 17.01L27.75 15.5L31 15.5L31 14L21 14L21 15.5L25.75 15.5L24.99 17.02C 21.86 17.11 19 17.73 19 20.5L19 20.5L19 28.94C 19 30.39 20.19 31.6 21.59 31.91L21.59 31.91L20 33.5L20 34L22.23 34L24.23 32L28 32L30 34L32 34L32 33.5L30.5 32L30.42 32C 32.11 32 33 30.63 33 28.94zM26 30.5C 25.17 30.5 24.5 29.83 24.5 29C 24.5 28.17 25.17 27.5 26 27.5C 26.83 27.5 27.5 28.17 27.5 29C 27.5 29.83 26.83 30.5 26 30.5zM21 26L31 26L31 21L21 21L21 26z" stroke="none" fill="#0277BD" fill-rule="nonzero" />
</g>
</svg>