<svg width="51" height="50" viewBox="0 0 51 50" fill="none" xmlns="http://www.w3.org/2000/svg">
<circle cx="25.5" cy="25" r="21.875" stroke="#757575" stroke-width="2"/>
<path d="M47.375 25C47.375 12.9188 37.5812 3.125 25.5 3.125" stroke="#9C27B0" stroke-width="2"/>
<path d="M25.4999 46.875C37.5811 46.875 47.3749 37.0812 47.3749 25" stroke="#9C27B0" stroke-width="2"/>
<path fill-rule="evenodd" clip-rule="evenodd" d="M34.8334 31.5867V20.3334C34.8334 16.6134 31.3534 15.8 26.82 15.68L27.8334 13.6667H32.1667V11.6667H18.8334V13.6667H25.1667L24.1534 15.6934C19.98 15.8134 16.1667 16.64 16.1667 20.3334V31.5867C16.1667 33.52 17.7534 35.1334 19.62 35.5467L17.5 37.6667V38.3334H20.4734L23.14 35.6667H28.1667L30.8334 38.3334H33.5V37.6667L31.5 35.6667H31.3934C33.6467 35.6667 34.8334 33.84 34.8334 31.5867ZM25.5 33.6667C24.3934 33.6667 23.5 32.7734 23.5 31.6667C23.5 30.56 24.3934 29.6667 25.5 29.6667C26.6067 29.6667 27.5 30.56 27.5 31.6667C27.5 32.7734 26.6067 33.6667 25.5 33.6667ZM18.8334 27.6667H32.1667V21H18.8334V27.6667Z" fill="#9C27B0"/>
</svg>
