<svg width="24" height="24" viewBox="0 0 24 24" fill="none" xmlns="http://www.w3.org/2000/svg">
<path fill-rule="evenodd" clip-rule="evenodd" d="M12 5.33337C15.0333 5.33337 17.5583 7.49171 18.125 10.3667C20.2917 10.5167 22 12.3 22 14.5C22 16.8 20.1333 18.6667 17.8333 18.6667H7C4.24167 18.6667 2 16.425 2 13.6667C2 11.0917 3.95 8.96671 6.45833 8.70004C7.5 6.70004 9.59167 5.33337 12 5.33337ZM14.9917 17L16.1667 15.825L13.175 12.8334L16.1667 9.84171L14.9917 8.66671L12 11.6584L9.00833 8.66671L7.83333 9.84171L10.825 12.8334L7.83333 15.825L9.00833 17L12 14.0084L14.9917 17Z" fill="#C62828"/>
</svg>
