<svg width="16" height="18" viewBox="0 0 16 18" fill="none" xmlns="http://www.w3.org/2000/svg">
<path fill-rule="evenodd" clip-rule="evenodd" d="M13.6724 2.33317H12.8391V1.49984C12.8391 1.0415 12.4641 0.666504 12.0058 0.666504C11.5474 0.666504 11.1724 1.0415 11.1724 1.49984V2.33317H4.50578V1.49984C4.50578 1.0415 4.13078 0.666504 3.67244 0.666504C3.21411 0.666504 2.83911 1.0415 2.83911 1.49984V2.33317H2.00578C1.08078 2.33317 0.347445 3.08317 0.347445 3.99984L0.339111 15.6665C0.339111 16.5832 1.08078 17.3332 2.00578 17.3332H13.6724C14.5891 17.3332 15.3391 16.5832 15.3391 15.6665V3.99984C15.3391 3.08317 14.5891 2.33317 13.6724 2.33317ZM11.1726 8.60819C10.9309 8.36652 10.5309 8.36652 10.2892 8.60819L6.66424 12.2332L5.33924 10.9082C5.09757 10.6665 4.69757 10.6665 4.45591 10.9082C4.21424 11.1499 4.21424 11.5499 4.45591 11.7915L6.07257 13.4082C6.39757 13.7332 6.92257 13.7332 7.24757 13.4082L11.1642 9.49152C11.4142 9.24986 11.4142 8.84986 11.1726 8.60819ZM2.83895 15.6665H12.8389C13.2973 15.6665 13.6723 15.2915 13.6723 14.8332V6.49988H2.00562V14.8332C2.00562 15.2915 2.38062 15.6665 2.83895 15.6665Z" fill="#D8D8D8"/>
</svg>
