<svg width="14" height="16" viewBox="0 0 14 16" fill="none" xmlns="http://www.w3.org/2000/svg">
<path fill-rule="evenodd" clip-rule="evenodd" d="M11.4552 5.84354V8.24854C11.4552 9.89854 12.0916 11.3635 13.3593 12.5985C13.43 12.6685 13.4553 12.7735 13.4249 12.8685C13.3946 12.9635 13.3138 13.0385 13.2128 13.0535L10.6522 13.4935C10.1724 13.5735 9.73303 13.6385 9.32394 13.6935C8.84919 14.6085 7.92495 15.1935 6.91485 15.1935C5.89969 15.1935 4.97545 14.6085 4.50576 13.6935C4.09161 13.6385 3.65727 13.5685 3.17242 13.4885L0.611816 13.0485C0.510806 13.0285 0.429998 12.9585 0.399695 12.8635C0.369392 12.7685 0.394644 12.6635 0.465351 12.5935C1.66232 11.4135 2.27343 9.94854 2.27343 8.24354V5.83854C2.28353 4.15354 3.4805 2.85354 4.66232 2.31354C4.93505 2.19354 5.21788 2.09854 5.51081 2.02354V1.83354C5.51081 1.09854 6.11687 0.498535 6.85929 0.498535C7.60172 0.498535 8.20778 1.09854 8.20778 1.83354V1.99854C8.53101 2.07854 8.84919 2.17854 9.15222 2.31354C10.2229 2.79854 11.4654 4.01354 11.4552 5.84354ZM6.85929 1.03854C6.41484 1.03854 6.05121 1.39854 6.05121 1.83854H6.04616V1.90354C6.58151 1.81854 7.13202 1.81354 7.66737 1.88854V1.83854C7.66737 1.39854 7.30373 1.03854 6.85929 1.03854ZM3.89464 6.11353C3.74313 6.11353 3.62192 5.99353 3.62697 5.84353C3.63707 4.59353 4.63707 3.80353 5.23303 3.53353C6.27343 3.05853 7.55121 3.05853 8.59666 3.53353C8.73303 3.59353 8.79363 3.75353 8.72798 3.88853C8.66737 4.02353 8.50575 4.08353 8.36939 4.01853C7.46535 3.60853 6.35424 3.60853 5.45525 4.01853C4.9805 4.23853 4.17242 4.86853 4.16232 5.84853C4.16232 5.99353 4.04111 6.11353 3.89464 6.11353ZM6.9098 14.6585C7.59161 14.6585 8.23303 14.3235 8.64212 13.7735H8.63202C8.58656 13.7785 8.53984 13.7823 8.49312 13.786C8.4464 13.7898 8.39969 13.7935 8.35424 13.7985C8.29363 13.8035 8.23303 13.8085 8.17747 13.8135C8.15475 13.816 8.13202 13.8173 8.10929 13.8185C8.08656 13.8198 8.06384 13.821 8.04111 13.8235C7.25828 13.8785 6.53606 13.8785 5.75323 13.8235C5.71283 13.8235 5.67747 13.8235 5.64212 13.8185L5.4906 13.8035C5.43752 13.7985 5.3857 13.7935 5.33389 13.7885C5.28217 13.7835 5.23045 13.7785 5.17747 13.7735C5.58656 14.3235 6.22798 14.6585 6.9098 14.6585Z" fill="#D8D8D8"/>
</svg>
