<svg width="18" height="16" viewBox="0 0 18 16" fill="none" xmlns="http://www.w3.org/2000/svg">
<path fill-rule="evenodd" clip-rule="evenodd" d="M2.25555 15.4347H15.4226C16.769 15.4347 17.6084 13.9746 16.9351 12.8118L10.3516 1.43706C9.6784 0.274235 7.99974 0.274235 7.32652 1.43706L0.742999 12.8118C0.0697833 13.9746 0.909117 15.4347 2.25555 15.4347ZM8.83896 9.31456C8.3581 9.31456 7.96466 8.92113 7.96466 8.44026V6.69165C7.96466 6.21078 8.3581 5.81734 8.83896 5.81734C9.31983 5.81734 9.71327 6.21078 9.71327 6.69165V8.44026C9.71327 8.92113 9.31983 9.31456 8.83896 9.31456ZM7.96466 12.8118H9.71327V11.0632H7.96466V12.8118Z" fill="#D8D8D8"/>
</svg>
