<svg width="36" height="36" viewBox="0 0 36 36" fill="none" xmlns="http://www.w3.org/2000/svg">
<circle cx="18" cy="18" r="18" fill="#333D3D"/>
<path fill-rule="evenodd" clip-rule="evenodd" d="M25 22.94V14.5C25 11.71 22.39 11.1 18.99 11.01L19.75 9.5H23V8H13V9.5H17.75L16.99 11.02C13.86 11.11 11 11.73 11 14.5V22.94C11 24.39 12.19 25.6 13.59 25.91L12 27.5V28H14.23L16.23 26H20L22 28H24V27.5L22.5 26H22.42C24.11 26 25 24.63 25 22.94ZM18 24.5C17.17 24.5 16.5 23.83 16.5 23C16.5 22.17 17.17 21.5 18 21.5C18.83 21.5 19.5 22.17 19.5 23C19.5 23.83 18.83 24.5 18 24.5ZM13 20H23V15H13V20Z" fill="#F5F5F5"/>
</svg>
