<svg width="14" height="20" viewBox="0 0 14 20" fill="none" xmlns="http://www.w3.org/2000/svg">
<path fill-rule="evenodd" clip-rule="evenodd" d="M14 14.94V6.5C14 3.71 11.39 3.1 7.99 3.01L8.75 1.5H12V0H2V1.5H6.75L5.99 3.02C2.86 3.11 0 3.73 0 6.5V14.94C0 16.39 1.19 17.6 2.59 17.91L1 19.5V20H3.23L5.23 18H9L11 20H13V19.5L11.5 18H11.42C13.11 18 14 16.63 14 14.94ZM7 16.5C6.17 16.5 5.5 15.83 5.5 15C5.5 14.17 6.17 13.5 7 13.5C7.83 13.5 8.5 14.17 8.5 15C8.5 15.83 7.83 16.5 7 16.5ZM2 12H12V7H2V12Z" fill="#F5F5F5"/>
</svg>
