<svg width="194" height="24" viewBox="0 0 194 24" fill="none" xmlns="http://www.w3.org/2000/svg">
<path fill-rule="evenodd" clip-rule="evenodd" d="M107.279 19.737V17.3942H107.279L103.626 17.3975L110.79 13.5474V21.4016C109.093 22.8286 106.76 24 103.743 24C98.6053 24 95.0694 20.4178 95.0694 15.5716V15.5249C95.0694 10.8663 98.7224 7.04974 103.72 7.04974C106.688 7.04974 108.481 7.84598 110.202 9.29754L106.709 11.1734C105.84 10.6606 104.903 10.3739 103.603 10.3739C100.963 10.3739 98.865 12.6914 98.865 15.4774V15.524C98.865 18.5197 100.938 20.7208 103.862 20.7208C105.182 20.7208 106.361 20.3924 107.279 19.737ZM135.495 23.7591L140.491 11.5846L145.486 23.7591H149.282L142.212 7.2537H138.865L131.795 23.7591H135.495ZM79.4783 23.6928V7.30451H91.9217V10.5148H83.0843V13.8382H90.8612V17.0461H83.0843V20.4874H92.0396V23.6953L79.4783 23.6928ZM36.9589 23.7444V7.35528H40.588V23.7444H36.9589ZM56.0709 23.7444L48.0813 13.3254V23.7444H44.4983V7.35528H47.8454L55.5753 17.4442V7.35528H59.1574V23.7444H56.0709ZM71.1505 23.7444V10.6803H76.17V7.35528H62.5012V10.6803H67.5214V23.7444H71.1505ZM129.291 12.7127C129.291 9.34179 126.4 7.30451 122.511 7.30451H114.971V23.6928H118.601V10.5615H122.207C123.974 10.5615 125.059 11.3578 125.059 12.9043V12.9519C125.059 13.0436 125.053 13.1337 125.044 13.2222H125.041L121.51 18.4599L125.041 23.6977H129.282L125.676 18.4599L129.282 13.2222H129.278C129.288 13.0731 129.294 12.9207 129.294 12.7635L129.291 12.7127Z" fill="white"/>
<path d="M17.4182 19.825L5.77246 6.72437V12.8136L14.1826 22.2749L14.1768 22.2666C15.7905 24.0426 18.4182 24.4773 20.5208 23.3151L17.4182 19.8258V19.825Z" fill="url(#paint0_linear)"/>
<path d="M5.71206 0.0272208C5.53423 0.00907362 5.3564 0 5.17774 0C2.31923 0 0.000827116 2.3113 0 5.16206V18.7964C0 21.648 2.31841 23.9601 5.17774 23.9601C5.37625 23.9601 5.57476 23.9486 5.77161 23.9255V2.30965C5.77161 1.47405 6.23976 0.707742 6.98417 0.323351C6.57557 0.171574 6.14712 0.0717641 5.71206 0.0272208Z" fill="url(#paint1_linear)"/>
<path d="M23.189 2.30966C23.189 1.26702 22.4652 0.362131 21.4454 0.129517C19.0906 0.665685 17.4198 2.75427 17.4174 5.16207V19.8242L20.5207 23.3134C22.1667 22.4036 23.189 20.6747 23.1898 18.7981V2.30966H23.189Z" fill="url(#paint2_linear)"/>
<path d="M27.7175 0H22.5778C22.1973 0.00164975 21.8177 0.0445432 21.4463 0.129505C22.4661 0.361295 23.1898 1.26618 23.1898 2.30965V5.75597H32.8969C32.9184 5.5613 32.8969 5.36498 32.8969 5.16371C32.8969 3.79442 32.351 2.4804 31.3799 1.51199C30.4081 0.544417 29.0913 0 27.7167 0H27.7175Z" fill="url(#paint3_linear)"/>
<path d="M24.9036 16.5817V21.7248C24.9036 22.9604 25.9077 23.9618 27.1468 23.9626H32.8853L24.9036 16.5817H24.9036Z" fill="url(#paint4_linear)"/>
<path d="M9.08421 1.77594C8.51019 1.13088 7.78977 0.633486 6.98334 0.324158C6.23811 0.708549 5.76996 1.47486 5.76996 2.31045V4.13673L17.4191 17.2374V11.1482L9.08421 1.77594Z" fill="url(#paint5_linear)"/>
<path d="M179.018 23.6703V8.95005L176.792 18.1617H174.945L172.763 8.95005V23.6703H171.072V7.26245H174.166L175.947 15.6539L177.75 7.26245H180.755V23.6703H179.018Z" fill="white"/>
<path d="M162.64 23.6696C161.283 23.6696 160.242 23.3412 159.518 22.6855C158.793 22.0292 158.43 21.0294 158.43 19.6854V11.2474C158.43 9.90333 158.792 8.9035 159.518 8.24721C160.242 7.59092 161.283 7.26245 162.64 7.26245H165.961V9.0438H162.406C161.814 9.0438 161.342 9.21951 160.991 9.57093C160.641 9.92235 160.465 10.3328 160.465 10.8015V20.1305C160.465 20.5993 160.641 21.0097 160.991 21.3611C161.342 21.7126 161.814 21.8889 162.406 21.8889H165.961V23.6703H162.64V23.6696Z" fill="white"/>
<path d="M191.947 22.6862C191.16 23.3425 190.031 23.6703 188.558 23.6703H184.953V21.889H188.811C189.455 21.889 189.967 21.7133 190.347 21.3612C190.728 21.0098 190.918 20.5994 190.918 20.1307V17.6931C190.918 17.2401 190.791 16.8651 190.538 16.5681C190.283 16.2718 189.886 16.123 189.345 16.123H188.583C187.364 16.123 186.382 15.7945 185.638 15.1382C184.893 14.482 184.521 13.4822 184.521 12.1382V11.2472C184.521 9.90323 184.914 8.90343 185.701 8.24717C186.488 7.59091 187.618 7.26245 189.09 7.26245H192.721V9.04373H188.837C188.193 9.04373 187.681 9.21943 187.301 9.57084C186.92 9.92224 186.73 10.3326 186.73 10.8014V12.5827C186.73 13.0514 186.895 13.45 187.225 13.7779C187.555 14.1063 187.999 14.2702 188.558 14.2702H189.32C190.488 14.2702 191.415 14.579 192.1 15.1959C192.785 15.8135 193.128 16.7936 193.128 18.1376V19.6842C193.127 21.0302 192.734 22.03 191.947 22.6862Z" fill="white"/>
<defs>
<linearGradient id="paint0_linear" x1="-0.412194" y1="18.2135" x2="15.2485" y2="30.2324" gradientUnits="userSpaceOnUse">
<stop stop-color="#AFE2E3"/>
<stop offset="0.3875" stop-color="#59D4DA"/>
<stop offset="0.74553" stop-color="#1DCAD3"/>
<stop offset="1" stop-color="#011E41"/>
</linearGradient>
<linearGradient id="paint1_linear" x1="-0.93043" y1="0.945227" x2="-0.93043" y2="22.9718" gradientUnits="userSpaceOnUse">
<stop stop-color="#1B8297"/>
<stop offset="0.43531" stop-color="#2EC7C1"/>
<stop offset="1" stop-color="#74DBCD"/>
</linearGradient>
<linearGradient id="paint2_linear" x1="17.9427" y1="0.796982" x2="17.9427" y2="23.3134" gradientUnits="userSpaceOnUse">
<stop stop-color="#177389"/>
<stop offset="0.4353" stop-color="#2DC4B3"/>
<stop offset="1" stop-color="#A5E5D9"/>
<stop offset="1" stop-color="#A5E5D9"/>
</linearGradient>
<linearGradient id="paint3_linear" x1="19.5147" y1="5.3361" x2="34.9119" y2="12.0978" gradientUnits="userSpaceOnUse">
<stop stop-color="#0C4965"/>
<stop offset="0.42049" stop-color="#2EC6D0"/>
<stop offset="1" stop-color="#A5E5D9"/>
</linearGradient>
<linearGradient id="paint4_linear" x1="27.2729" y1="18.8629" x2="24.4766" y2="22.0805" gradientUnits="userSpaceOnUse">
<stop stop-color="#2EC5BB"/>
<stop offset="1" stop-color="#8FDFD2"/>
</linearGradient>
<linearGradient id="paint5_linear" x1="-0.224785" y1="11.7432" x2="17.3329" y2="20.034" gradientUnits="userSpaceOnUse">
<stop stop-color="#032B4C"/>
<stop offset="0.28994" stop-color="#2EC5CF"/>
<stop offset="0.61499" stop-color="#2FC9D3"/>
<stop offset="1" stop-color="#022547"/>
</linearGradient>
</defs>
</svg>
