<svg width="290" height="36" viewBox="0 0 290 36" fill="none" xmlns="http://www.w3.org/2000/svg">
<path fill-rule="evenodd" clip-rule="evenodd" d="M161.073 29.6056V26.0913H161.072L155.592 26.0962L166.339 20.3211V32.1024C163.793 34.2429 160.294 36 155.769 36C148.062 36 142.758 30.6267 142.758 23.3574V23.2873C142.758 16.2994 148.237 10.5746 155.733 10.5746C160.186 10.5746 162.875 11.769 165.457 13.9463L160.217 16.7602C158.915 15.991 157.508 15.5609 155.559 15.5609C151.598 15.5609 148.451 19.0371 148.451 23.2161V23.2861C148.451 27.7796 151.561 31.0813 155.947 31.0813C157.926 31.0813 159.695 30.5886 161.073 29.6056ZM203.397 35.6387L210.891 17.377L218.383 35.6387H224.077L213.471 10.8806H208.452L197.847 35.6387H203.397ZM119.371 35.5392V10.9568H138.036V15.7723H124.78V20.7573H136.446V25.5691H124.78V30.7311H138.213V35.5429L119.371 35.5392ZM55.5922 35.6166V11.0329H61.0359V35.6166H55.5922ZM84.2603 35.6166L72.2758 19.9881V35.6166H66.9014V11.0329H71.922L83.5169 26.1663V11.0329H88.8901V35.6166H84.2603ZM106.88 35.6166V16.0205H114.409V11.0329H93.9057V16.0205H101.436V35.6166H106.88ZM194.091 19.069C194.091 14.0127 189.753 10.9568 183.92 10.9568H172.611V35.5392H178.056V15.8423H183.465C186.115 15.8423 187.742 17.0367 187.742 19.3566V19.4278C187.742 19.5654 187.733 19.7006 187.72 19.8333H187.715L182.418 27.69L187.715 35.5466H194.077L188.667 27.69L194.077 19.8333H194.071C194.086 19.6097 194.095 19.3811 194.095 19.1452L194.091 19.069Z" fill="white"/>
<path d="M26.2813 29.7376L8.81264 10.0866V19.2204L21.4278 33.4124L21.4191 33.4C23.8397 36.0639 27.7813 36.716 30.9351 34.9726L26.2813 29.7388V29.7376Z" fill="url(#paint0_linear)"/>
<path d="M8.72202 0.0408313C8.45528 0.0136104 8.18853 0 7.92055 0C3.63278 0 0.155171 3.46695 0.153931 7.74309V28.1946C0.153931 32.472 3.63154 35.9402 7.92055 35.9402C8.21831 35.9402 8.51607 35.9229 8.81135 35.8882V3.46447C8.81135 2.21108 9.51357 1.06161 10.6302 0.485026C10.0173 0.257361 9.37462 0.107646 8.72202 0.0408313Z" fill="url(#paint1_linear)"/>
<path d="M34.9374 3.46449C34.9374 1.90053 33.8518 0.543197 32.3221 0.194275C28.7899 0.998527 26.2837 4.1314 26.28 7.74311V29.7363L30.935 34.9701C33.4039 33.6054 34.9374 31.012 34.9386 28.1971V3.46449H34.9374Z" fill="url(#paint2_linear)"/>
<path d="M41.7302 0H34.0207C33.4499 0.00247462 32.8805 0.0668148 32.3234 0.194258C33.8532 0.541942 34.9387 1.89927 34.9387 3.46447V8.63396H49.4993C49.5315 8.34195 49.4993 8.04747 49.4993 7.74557C49.4993 5.69163 48.6804 3.7206 47.2239 2.26799C45.7661 0.816626 43.791 0 41.729 0H41.7302Z" fill="url(#paint3_linear)"/>
<path d="M37.5093 24.8725V32.5871C37.5093 34.4406 39.0155 35.9427 40.874 35.9439H49.4818L37.5093 24.8725H37.5093Z" fill="url(#paint4_linear)"/>
<path d="M13.7802 2.66393C12.9192 1.69636 11.8386 0.950259 10.6289 0.486267C9.51109 1.06285 8.80887 2.21232 8.80887 3.46571V6.20512L26.2825 25.8561V16.7223L13.7802 2.66393Z" fill="url(#paint5_linear)"/>
<path d="M268.681 35.5054V13.4251L265.342 27.2425H262.571L259.299 13.4251V35.5054H256.762V10.8937H261.403L264.074 23.4808L266.779 10.8937H271.287V35.5054H268.681Z" fill="#1DCAD3"/>
<path d="M244.114 35.5045C242.079 35.5045 240.517 35.0118 239.43 34.0283C238.343 33.0439 237.798 31.5441 237.798 29.5281V16.8711C237.798 14.8551 238.342 13.3553 239.43 12.3709C240.517 11.3864 242.079 10.8937 244.114 10.8937H249.096V13.5658H243.763C242.874 13.5658 242.167 13.8293 241.641 14.3565C241.115 14.8836 240.852 15.4992 240.852 16.2024V30.1958C240.852 30.899 241.115 31.5146 241.641 32.0418C242.167 32.5689 242.874 32.8334 243.763 32.8334H249.096V35.5055H244.114V35.5045Z" fill="#1DCAD3"/>
<path d="M288.075 34.0294C286.895 35.0137 285.2 35.5054 282.991 35.5054H277.583V32.8335H283.371C284.336 32.8335 285.104 32.57 285.675 32.0419C286.246 31.5148 286.531 30.8992 286.531 30.196V26.5397C286.531 25.8602 286.341 25.2977 285.96 24.8522C285.579 24.4077 284.983 24.1845 284.171 24.1845H283.028C281.2 24.1845 279.727 23.6918 278.611 22.7074C277.493 21.723 276.935 20.2233 276.935 18.2073V16.8709C276.935 14.8549 277.525 13.3552 278.705 12.3708C279.886 11.3864 281.58 10.8937 283.79 10.8937H289.236V13.5656H283.409C282.444 13.5656 281.676 13.8292 281.105 14.3563C280.534 14.8834 280.249 15.499 280.249 16.2021V18.8741C280.249 19.5772 280.496 20.1751 280.991 20.6668C281.487 21.1595 282.152 21.4053 282.991 21.4053H284.134C285.886 21.4053 287.276 21.8685 288.304 22.7939C289.332 23.7203 289.846 25.1905 289.846 27.2065V29.5263C289.845 31.5453 289.255 33.045 288.075 34.0294Z" fill="#1DCAD3"/>
<defs>
<linearGradient id="paint0_linear" x1="-0.464345" y1="27.3203" x2="23.0267" y2="45.3487" gradientUnits="userSpaceOnUse">
<stop stop-color="#AFE2E3"/>
<stop offset="0.3875" stop-color="#59D4DA"/>
<stop offset="0.74553" stop-color="#1DCAD3"/>
<stop offset="1" stop-color="#011E41"/>
</linearGradient>
<linearGradient id="paint1_linear" x1="-1.24171" y1="1.41784" x2="-1.24171" y2="34.4576" gradientUnits="userSpaceOnUse">
<stop stop-color="#1B8297"/>
<stop offset="0.43531" stop-color="#2EC7C1"/>
<stop offset="1" stop-color="#74DBCD"/>
</linearGradient>
<linearGradient id="paint2_linear" x1="27.068" y1="1.19547" x2="27.068" y2="34.9701" gradientUnits="userSpaceOnUse">
<stop stop-color="#177389"/>
<stop offset="0.4353" stop-color="#2DC4B3"/>
<stop offset="1" stop-color="#A5E5D9"/>
<stop offset="1" stop-color="#A5E5D9"/>
</linearGradient>
<linearGradient id="paint3_linear" x1="29.426" y1="8.00416" x2="52.5219" y2="18.1467" gradientUnits="userSpaceOnUse">
<stop stop-color="#0C4965"/>
<stop offset="0.42049" stop-color="#2EC6D0"/>
<stop offset="1" stop-color="#A5E5D9"/>
</linearGradient>
<linearGradient id="paint4_linear" x1="41.0633" y1="28.2944" x2="36.8688" y2="33.1208" gradientUnits="userSpaceOnUse">
<stop stop-color="#2EC5BB"/>
<stop offset="1" stop-color="#8FDFD2"/>
</linearGradient>
<linearGradient id="paint5_linear" x1="-0.183247" y1="17.6149" x2="26.1533" y2="30.051" gradientUnits="userSpaceOnUse">
<stop stop-color="#032B4C"/>
<stop offset="0.28994" stop-color="#2EC5CF"/>
<stop offset="0.61499" stop-color="#2FC9D3"/>
<stop offset="1" stop-color="#022547"/>
</linearGradient>
</defs>
</svg>
