<svg width="36" height="36" viewBox="0 0 36 36" fill="none" xmlns="http://www.w3.org/2000/svg">
<circle cx="18" cy="18" r="18" fill="#333D3D"/>
<path d="M20.6108 22.2942C20.6108 21.7717 20.6108 21.2493 20.6108 20.7286C20.6108 20.5149 20.5802 20.312 20.4759 20.1217C20.3032 19.8093 19.9507 19.6351 19.6018 19.6297C19.4795 19.628 19.3572 19.6297 19.2349 19.6297C18.6576 19.6297 18.0784 19.6297 17.5011 19.6297C16.823 19.6297 16.145 19.6297 15.4669 19.6297C15.0928 19.6297 14.7187 19.6351 14.3447 19.6297C14.3321 19.6297 14.3195 19.6297 14.3051 19.628C14.368 19.6369 14.4328 19.6459 14.4957 19.6531C14.4706 19.6495 14.449 19.6441 14.4256 19.6369C14.4831 19.6603 14.5407 19.6854 14.5982 19.7087C14.5749 19.6998 14.5569 19.689 14.5353 19.6764C14.5839 19.7141 14.6324 19.7518 14.681 19.7895C14.6558 19.7698 14.6342 19.7482 14.6144 19.7231C14.6522 19.7716 14.69 19.8201 14.7277 19.8685C14.7152 19.8488 14.7044 19.829 14.6954 19.8057C14.7187 19.8632 14.7439 19.9206 14.7673 19.9781C14.7601 19.9547 14.7547 19.9332 14.7511 19.908C14.7601 19.9709 14.7691 20.0355 14.7763 20.0984C14.7691 19.9565 14.7745 19.8129 14.7745 19.6692C14.7745 19.3389 14.7745 19.0103 14.7745 18.6799C14.7745 17.933 14.7745 17.1861 14.7745 16.4392C14.7745 16.2615 14.7673 16.0819 14.7763 15.9059C14.7673 15.9688 14.7583 16.0334 14.7511 16.0963C14.7547 16.0711 14.7601 16.0496 14.7673 16.0262C14.7439 16.0837 14.7187 16.1412 14.6954 16.1986C14.7044 16.1753 14.7152 16.1573 14.7277 16.1358C14.69 16.1842 14.6522 16.2327 14.6144 16.2812C14.6342 16.2561 14.6558 16.2345 14.681 16.2148C14.6324 16.2525 14.5839 16.2902 14.5353 16.3279C14.5551 16.3153 14.5749 16.3045 14.5982 16.2956C14.5407 16.3189 14.4831 16.344 14.4256 16.3674C14.449 16.3602 14.4706 16.3548 14.4957 16.3512C14.4328 16.3602 14.368 16.3692 14.3051 16.3764C14.6234 16.362 14.9454 16.3746 15.2637 16.3746C15.9292 16.3746 16.5964 16.3746 17.2619 16.3746C17.8716 16.3746 18.4831 16.3746 19.0928 16.3746C19.2493 16.3746 19.4058 16.3746 19.5622 16.3746C19.6629 16.3746 19.7583 16.3674 19.8572 16.344C20.3086 16.2381 20.6054 15.8162 20.6108 15.3637C20.618 14.8251 20.6108 14.2882 20.6108 13.7496C20.6108 13.7209 20.6108 13.6921 20.6144 13.6634C20.6054 13.7263 20.5964 13.7909 20.5892 13.8537C20.5928 13.8322 20.5982 13.8124 20.6072 13.7927C20.5838 13.8501 20.5586 13.9076 20.5352 13.965C20.5442 13.9453 20.5532 13.9291 20.5658 13.9112C20.528 13.9597 20.4903 14.0081 20.4525 14.0566C20.4687 14.0351 20.4867 14.0171 20.5083 13.9992C20.4597 14.0369 20.4111 14.0746 20.3626 14.1123C20.3842 14.0961 20.4075 14.0835 20.4327 14.0728C20.3752 14.0961 20.3176 14.1213 20.2601 14.1446C20.2798 14.1374 20.2978 14.1338 20.3176 14.1284C20.2547 14.1374 20.1899 14.1464 20.127 14.1536C20.1539 14.15 20.1809 14.15 20.2079 14.1536C20.145 14.1446 20.0802 14.1356 20.0173 14.1284C20.0388 14.132 20.0568 14.1374 20.0766 14.1446C20.0191 14.1213 19.9615 14.0961 19.9039 14.0728C19.9309 14.0853 19.9561 14.0997 19.9795 14.1177C19.9309 14.08 19.8824 14.0423 19.8338 14.0045C20.0083 14.1482 20.1809 14.2936 20.3554 14.4373C20.769 14.7802 21.1845 15.1249 21.5982 15.4679C22.1 15.8844 22.6018 16.301 23.1036 16.7175C23.5334 17.073 23.9615 17.4303 24.3913 17.7858C24.5945 17.9546 24.8032 18.118 25.001 18.2921C25.0208 18.3101 25.0388 18.328 25.055 18.3496C25.0172 18.3011 24.9794 18.2526 24.9417 18.2041C24.9543 18.2239 24.965 18.2419 24.974 18.2652C24.9507 18.2077 24.9255 18.1503 24.9021 18.0928C24.9093 18.1144 24.9147 18.1359 24.9183 18.1575C24.9093 18.0946 24.9003 18.03 24.8931 17.9671C24.8949 17.9905 24.8949 18.0102 24.8931 18.0336C24.9021 17.9707 24.9111 17.9061 24.9183 17.8433C24.9147 17.8666 24.9093 17.8863 24.9021 17.9079C24.9255 17.8504 24.9507 17.793 24.974 17.7355C24.965 17.7571 24.9543 17.7768 24.9417 17.7966C24.9794 17.7481 25.0172 17.6996 25.055 17.6511C25.0082 17.7122 24.9399 17.7589 24.8823 17.8073C24.7582 17.9097 24.6359 18.012 24.5118 18.1144C24.1017 18.4537 23.6917 18.7949 23.2816 19.1342C22.7798 19.5507 22.278 19.9673 21.7762 20.382C21.3428 20.7411 20.9093 21.1002 20.4759 21.4611C20.2637 21.6371 20.0514 21.8112 19.841 21.9872C19.8374 21.989 19.8338 21.9926 19.832 21.9944C19.8806 21.9567 19.9291 21.919 19.9777 21.8813C19.9543 21.8992 19.9291 21.9136 19.9021 21.9262C19.9597 21.9028 20.0173 21.8777 20.0748 21.8543C20.055 21.8615 20.0352 21.8669 20.0155 21.8705C20.0784 21.8615 20.1432 21.8525 20.2061 21.8454C20.1791 21.8489 20.1521 21.8489 20.1252 21.8454C20.1881 21.8543 20.2529 21.8633 20.3158 21.8705C20.296 21.8669 20.278 21.8615 20.2583 21.8543C20.3158 21.8777 20.3734 21.9028 20.4309 21.9262C20.4057 21.9154 20.3842 21.9028 20.3608 21.8867C20.4093 21.9244 20.4579 21.9621 20.5065 21.9998C20.4849 21.9818 20.4669 21.9639 20.4507 21.9423C20.4885 21.9908 20.5262 22.0393 20.564 22.0877C20.5514 22.0698 20.5424 22.0536 20.5334 22.0339C20.5568 22.0913 20.582 22.1488 20.6054 22.2062C20.5982 22.1847 20.5928 22.1667 20.5874 22.1452C20.5964 22.208 20.6054 22.2727 20.6126 22.3355C20.6126 22.3247 20.6108 22.3086 20.6108 22.2942C20.6036 22.1057 20.5352 21.9208 20.4003 21.7861C20.2762 21.6622 20.0712 21.5671 19.8914 21.576C19.5137 21.5922 19.1558 21.892 19.1719 22.2942C19.1863 22.6443 19.35 22.9585 19.6522 23.1435C19.9219 23.3087 20.2565 23.3284 20.5442 23.2063C20.6737 23.1507 20.7816 23.0717 20.8895 22.9819C21.0083 22.8831 21.127 22.7844 21.2457 22.6856C21.7385 22.2763 22.2313 21.8687 22.7223 21.4593C23.3266 20.9584 23.9291 20.4575 24.5334 19.9565C24.965 19.5974 25.3967 19.2401 25.8301 18.881C25.9021 18.8218 25.9794 18.7661 26.046 18.7015C26.4273 18.3209 26.4381 17.6422 26.0244 17.2777C25.9992 17.2561 25.974 17.2364 25.9488 17.2148C25.5801 16.9078 25.2096 16.6026 24.8409 16.2956C24.2492 15.8054 23.6593 15.3152 23.0676 14.8251C22.5316 14.3798 21.9957 13.9345 21.4597 13.491C21.2996 13.3582 21.1413 13.2271 20.9813 13.0942C20.9453 13.0637 20.9075 13.0332 20.8716 13.0027C20.6593 12.8267 20.4165 12.6885 20.127 12.7154C19.787 12.7477 19.4813 12.9057 19.3068 13.2092C19.2169 13.3654 19.1755 13.5431 19.1737 13.7227C19.1719 13.8358 19.1737 13.9489 19.1737 14.0602C19.1737 14.4283 19.1737 14.7963 19.1737 15.1626C19.1737 15.2434 19.1755 15.3242 19.1719 15.4032C19.1809 15.3404 19.1899 15.2757 19.1971 15.2129C19.1935 15.238 19.1881 15.2596 19.1809 15.2829C19.2043 15.2255 19.2295 15.168 19.2529 15.1106C19.2439 15.1339 19.2331 15.1519 19.2205 15.1734C19.2583 15.1249 19.296 15.0764 19.3338 15.028C19.314 15.0531 19.2924 15.0746 19.2673 15.0944C19.3158 15.0567 19.3644 15.019 19.4129 14.9813C19.3932 14.9938 19.3734 15.0046 19.35 15.0136C19.4075 14.9903 19.4651 14.9651 19.5227 14.9418C19.4993 14.949 19.4777 14.9543 19.4525 14.9579C19.5155 14.949 19.5802 14.94 19.6432 14.9328C19.296 14.949 18.9453 14.9346 18.6 14.9346C17.8878 14.9346 17.1774 14.9346 16.4651 14.9346C15.8644 14.9346 15.2655 14.9346 14.6648 14.9346C14.5551 14.9346 14.4436 14.9328 14.3339 14.9346C13.7799 14.9454 13.3537 15.3799 13.3375 15.9275C13.3357 15.9634 13.3375 15.9993 13.3375 16.0352C13.3375 16.6008 13.3375 17.1646 13.3375 17.7301C13.3375 18.3855 13.3375 19.0426 13.3375 19.698C13.3375 19.8219 13.3357 19.9457 13.3375 20.0678C13.3483 20.6208 13.7853 21.0464 14.3357 21.0607C14.3698 21.0625 14.404 21.0607 14.4382 21.0607C14.9418 21.0607 15.4454 21.0607 15.949 21.0607C16.6774 21.0607 17.4076 21.0607 18.136 21.0607C18.6072 21.0607 19.0802 21.0607 19.5514 21.0607C19.582 21.0607 19.6126 21.0607 19.645 21.0625C19.582 21.0536 19.5173 21.0446 19.4543 21.0374C19.4795 21.041 19.5011 21.0464 19.5245 21.0536C19.4669 21.0302 19.4093 21.0051 19.3518 20.9817C19.3752 20.9907 19.3932 21.0015 19.4147 21.0141C19.3662 20.9763 19.3176 20.9386 19.2691 20.9009C19.2942 20.9207 19.3158 20.9422 19.3356 20.9674C19.2978 20.9189 19.2601 20.8704 19.2223 20.8219C19.2349 20.8417 19.2457 20.8614 19.2547 20.8848C19.2313 20.8273 19.2061 20.7699 19.1827 20.7124C19.1899 20.7358 19.1953 20.7573 19.1989 20.7824C19.1899 20.7196 19.1809 20.655 19.1737 20.5921C19.1827 20.7842 19.1755 20.9781 19.1755 21.1721C19.1755 21.4755 19.1755 21.7771 19.1755 22.0806C19.1755 22.1506 19.1755 22.2206 19.1755 22.2906C19.1755 22.6659 19.5065 23.0268 19.895 23.0088C20.2816 22.9945 20.6108 22.6964 20.6108 22.2942Z" fill="#D8D8D8"/>
<path d="M17.9113 24.2225C17.2242 24.2225 16.5354 24.2225 15.8483 24.2225C14.7836 24.2225 13.7207 24.2225 12.6559 24.2225C12.37 24.2225 12.0732 24.2441 11.789 24.2064C11.852 24.2153 11.9167 24.2243 11.9797 24.2315C11.843 24.2118 11.7117 24.1758 11.584 24.1238C11.6415 24.1471 11.6991 24.1722 11.7567 24.1956C11.6254 24.1399 11.5031 24.0681 11.388 23.9819C11.4365 24.0196 11.4851 24.0573 11.5336 24.095C11.4221 24.0071 11.3214 23.9083 11.2351 23.797C11.2728 23.8455 11.3106 23.894 11.3484 23.9424C11.2621 23.8293 11.1901 23.7072 11.1344 23.5744C11.1577 23.6318 11.1829 23.6893 11.2063 23.7467C11.1541 23.6192 11.1182 23.4882 11.0984 23.3517C11.1074 23.4146 11.1164 23.4792 11.1236 23.542C11.1038 23.3876 11.1074 23.2314 11.1074 23.0752C11.1074 22.8239 11.1074 22.5725 11.1074 22.3229C11.1074 21.4683 11.1074 20.6118 11.1074 19.7572C11.1074 18.7122 11.1074 17.6691 11.1074 16.6241C11.1074 15.7264 11.1074 14.8304 11.1074 13.9327C11.1074 13.5179 11.1056 13.1032 11.1074 12.6902C11.1074 12.613 11.1128 12.5358 11.1236 12.4604C11.1146 12.5233 11.1056 12.5879 11.0984 12.6507C11.1182 12.5143 11.1541 12.3832 11.2063 12.2557C11.1829 12.3132 11.1577 12.3706 11.1344 12.4281C11.1901 12.297 11.2621 12.1749 11.3484 12.06C11.3106 12.1085 11.2728 12.157 11.2351 12.2055C11.3232 12.0941 11.4221 11.9936 11.5336 11.9074C11.4851 11.9451 11.4365 11.9828 11.388 12.0205C11.5013 11.9343 11.6236 11.8625 11.7567 11.8069C11.6991 11.8302 11.6415 11.8553 11.584 11.8787C11.7117 11.8266 11.843 11.7907 11.9797 11.771C11.9167 11.7799 11.852 11.7889 11.789 11.7961C12.03 11.7638 12.28 11.7799 12.521 11.7799C12.9869 11.7799 13.4545 11.7799 13.9203 11.7799C14.9994 11.7799 16.0785 11.7799 17.1577 11.7799C17.4095 11.7799 17.6595 11.7799 17.9113 11.7799C18.2872 11.7799 18.6487 11.4496 18.6307 11.0617C18.6127 10.6721 18.3141 10.3436 17.9113 10.3436C17.69 10.3436 17.4706 10.3436 17.2494 10.3436C16.7296 10.3436 16.2116 10.3436 15.6919 10.3436C15.0894 10.3436 14.4886 10.3436 13.8861 10.3436C13.4077 10.3436 12.9311 10.3436 12.4527 10.3436C12.0858 10.3436 11.7171 10.3292 11.3574 10.4369C10.3664 10.7314 9.67214 11.6543 9.66675 12.6866C9.66675 12.8411 9.66675 12.9955 9.66675 13.1499C9.66675 13.5162 9.66675 13.8824 9.66675 14.2469C9.66675 14.7586 9.66675 15.2703 9.66675 15.782C9.66675 16.3709 9.66675 16.9617 9.66675 17.5506C9.66675 18.1592 9.66675 18.7679 9.66675 19.3766C9.66675 19.9349 9.66675 20.4951 9.66675 21.0535C9.66675 21.4988 9.66675 21.9423 9.66675 22.3876C9.66675 22.6515 9.66675 22.9154 9.66675 23.1794C9.66675 23.6785 9.76207 24.1812 10.0534 24.5996C10.3772 25.0664 10.8376 25.4219 11.3915 25.5745C11.6164 25.6356 11.852 25.6571 12.0858 25.6571C12.4257 25.6571 12.7656 25.6571 13.1056 25.6571C13.6721 25.6571 14.2386 25.6571 14.807 25.6571C15.3933 25.6571 15.9814 25.6571 16.5678 25.6571C16.9598 25.6571 17.3501 25.6571 17.7422 25.6571C17.798 25.6571 17.8537 25.6571 17.9095 25.6571C18.2854 25.6571 18.6469 25.3267 18.6289 24.9389C18.6127 24.5511 18.3141 24.2225 17.9113 24.2225Z" fill="#D8D8D8"/>
</svg>
