<svg width="14" height="14" viewBox="0 0 14 14" fill="none" xmlns="http://www.w3.org/2000/svg">
<path d="M12.4762 5.81018H8.42861C8.29713 5.81018 8.19052 5.70357 8.19052 5.57208V1.52446C8.19052 0.867025 7.65748 0.333984 7.00004 0.333984C6.34261 0.333984 5.80957 0.867025 5.80957 1.52446V5.57208C5.80957 5.70357 5.70296 5.81018 5.57147 5.81018H1.52385C0.866414 5.81018 0.333374 6.34322 0.333374 7.00065C0.333374 7.65809 0.866414 8.19113 1.52385 8.19113H5.57147C5.70296 8.19113 5.80957 8.29774 5.80957 8.42922V12.4768C5.80957 13.1343 6.34261 13.6673 7.00004 13.6673C7.65748 13.6673 8.19052 13.1343 8.19052 12.4768V8.42922C8.19052 8.29774 8.29713 8.19113 8.42861 8.19113H12.4762C13.1337 8.19113 13.6667 7.65809 13.6667 7.00065C13.6667 6.34322 13.1337 5.81018 12.4762 5.81018Z" fill="#008B98"/>
</svg>
