<svg width="15" height="20" viewBox="0 0 15 20" fill="none" xmlns="http://www.w3.org/2000/svg">
<path fill-rule="evenodd" clip-rule="evenodd" d="M15.0002 14.94V6.5C15.0002 3.71 12.3902 3.1 8.99016 3.01L9.75016 1.5H13.0002V0H3.00016V1.5H7.75016L6.99016 3.02C4.53061 3.09072 2.23779 3.48871 1.36838 5H3.32435C4.40617 5 5.21406 5.95984 5.06823 7.00002H13.0002V12H3.77845L3.42017 13.3758C4.12924 13.817 4.60123 14.6034 4.60123 15.5C4.60123 16.5112 4.00087 17.3822 3.13716 17.7759C3.28475 17.8309 3.43619 17.8759 3.59016 17.91L2.00016 19.5V20H4.23016L6.23016 18H10.0002L12.0002 20H14.0002V19.5L12.5002 18H12.4202C14.1102 18 15.0002 16.63 15.0002 14.94ZM1.00016 10.6733L0.0182101 6.74553C-0.0764619 6.36684 0.209953 6.00001 0.600295 6.00001H3.47559C3.86593 6.00001 4.15235 6.36684 4.05767 6.74553L2.62003 12.4961C2.46853 13.1021 1.60735 13.1021 1.45586 12.4961L1.00138 10.6782V13.2543L1.00016 13.2549V10.6733ZM8 16.5C7.17 16.5 6.5 15.83 6.5 15C6.5 14.17 7.17 13.5 8 13.5C8.83 13.5 9.5 14.17 9.5 15C9.5 15.83 8.83 16.5 8 16.5ZM0.567383 15.5598C0.567383 14.7475 1.22586 14.0891 2.03812 14.0891C2.85039 14.0891 3.50887 14.7475 3.50887 15.5598C3.50887 16.3721 2.85039 17.0305 2.03812 17.0305C1.22586 17.0305 0.567383 16.3721 0.567383 15.5598Z" fill="#757575"/>
</svg>
