<svg width="24" height="24" viewBox="0 0 24 24" fill="none" xmlns="http://www.w3.org/2000/svg">
<path fill-rule="evenodd" clip-rule="evenodd" d="M10.2996 8.36631C10.6974 6.94409 10.3366 5.35446 9.22033 4.23594C8.10774 3.12779 6.53663 2.76409 5.12256 3.14779L7.51737 5.54186L6.88922 7.88705L4.54107 8.5152L2.147 6.1226C1.76478 7.53594 2.12774 9.10705 3.23811 10.2182C4.40182 11.3826 6.07885 11.7241 7.54552 11.247L7.55885 11.2604L17.41 21.1115C17.7996 21.5004 18.3107 21.6974 18.8211 21.6974C19.3322 21.6974 19.8418 21.5004 20.2329 21.1115C21.0114 20.3345 21.0114 19.0715 20.2329 18.2885L10.2996 8.36631ZM18.9929 20.7767C18.5737 20.7767 18.2337 20.4352 18.2337 20.0145C18.2337 19.5922 18.5737 19.2522 18.9929 19.2522C19.4151 19.2522 19.7566 19.5922 19.7566 20.0145C19.7574 20.4352 19.4159 20.7767 18.9929 20.7767Z" fill="#D8D8D8"/>
</svg>
