<svg width="25" height="26" viewBox="0 0 25 26" fill="none" xmlns="http://www.w3.org/2000/svg">
<path fill-rule="evenodd" clip-rule="evenodd" d="M10.2996 10.3663C10.6974 8.94409 10.3366 7.35446 9.22033 6.23594C8.10774 5.12779 6.53663 4.76409 5.12256 5.14779L7.51737 7.54186L6.88922 9.88705L4.54107 10.5152L2.147 8.1226C1.76478 9.53594 2.12774 11.107 3.23811 12.2182C4.40182 13.3826 6.07885 13.7241 7.54552 13.247L7.55885 13.2604L17.41 23.1115C17.7996 23.5004 18.3107 23.6974 18.8211 23.6974C19.3322 23.6974 19.8418 23.5004 20.2329 23.1115C21.0114 22.3345 21.0114 21.0715 20.2329 20.2885L10.2996 10.3663ZM18.9929 22.7767C18.5737 22.7767 18.2337 22.4352 18.2337 22.0145C18.2337 21.5922 18.5737 21.2522 18.9929 21.2522C19.4151 21.2522 19.7566 21.5922 19.7566 22.0145C19.7574 22.4352 19.4159 22.7767 18.9929 22.7767Z" fill="#43A047"/>
<path fill-rule="evenodd" clip-rule="evenodd" d="M16.3641 11.6451C16.1274 11.6451 15.8904 11.5512 15.7098 11.3633L12.4378 7.96115C12.0764 7.58535 12.0764 6.97616 12.4378 6.60035C12.7992 6.22455 13.3851 6.22455 13.7466 6.60035L16.3641 9.32198L22.2536 3.19831C22.6151 2.82262 23.2011 2.82251 23.5623 3.19831C23.9238 3.57412 23.9238 4.18345 23.5623 4.55911L17.0185 11.3633C16.8378 11.5511 16.6009 11.6451 16.3641 11.6451Z" fill="#43A047"/>
</svg>
