<svg width="16" height="16" viewBox="0 0 16 16" fill="none" xmlns="http://www.w3.org/2000/svg">
<path fill-rule="evenodd" clip-rule="evenodd" d="M13.9146 6.66665L14.6666 5.91465L12.7519 3.99998L14.6666 2.08531L13.9146 1.33331L11.9999 3.24798L10.0853 1.33331L9.33325 2.08531L11.2479 3.99998L9.33325 5.91465L10.0853 6.66665L11.9999 4.75198L13.9146 6.66665ZM6.14681 2.82394C6.89101 3.56962 7.1315 4.62937 6.86631 5.57752L13.4885 12.1923C14.0075 12.7143 14.0075 13.5563 13.4885 14.0743C13.2278 14.3336 12.888 14.4649 12.5473 14.4649C12.2071 14.4649 11.8663 14.3336 11.6066 14.0743L5.03915 7.5069L5.03026 7.49801C4.05249 7.81604 2.93446 7.58838 2.15866 6.81209C1.41841 6.07135 1.17644 5.02394 1.43125 4.08172L3.0273 5.67678L4.59273 5.25801L5.0115 3.69456L3.41496 2.09851C4.35767 1.8427 5.40508 2.08517 6.14681 2.82394ZM12.1557 13.343C12.1557 13.6234 12.3824 13.8511 12.6619 13.8511C12.9438 13.8511 13.1715 13.6234 13.171 13.343C13.171 13.0615 12.9434 12.8348 12.6619 12.8348C12.3824 12.8348 12.1557 13.0615 12.1557 13.343Z" fill="#2E7D32"/>
</svg>
