<svg width="24" height="24" viewBox="0 0 24 24" fill="none" xmlns="http://www.w3.org/2000/svg">
<path fill-rule="evenodd" clip-rule="evenodd" d="M10.3246 6.04832C9.74576 6.01245 9.1335 6 8.5 6C4.90875 6 2 6.4 2 9.2V17.6C2 19.144 3.27562 20.4 4.84375 20.4L3.625 21.6V22H13.375V21.6L12.1562 20.4C13.7244 20.4 15 19.144 15 17.6V13.917C14.2839 13.7969 13.6108 13.5499 13.0047 13.2H3.625V9.2H10.12C10.0413 8.81227 10 8.41096 10 8C10 7.31675 10.1142 6.66017 10.3246 6.04832ZM6.875 17.2C6.875 18.08 7.60625 18.8 8.5 18.8C9.39375 18.8 10.125 18.08 10.125 17.2C10.125 16.32 9.39375 15.6 8.5 15.6C7.60625 15.6 6.875 16.32 6.875 17.2Z" fill="#757575"/>
<path fill-rule="evenodd" clip-rule="evenodd" d="M19.8572 8C19.8572 8.16875 19.8444 8.33125 19.8251 8.4875L20.8987 9.3125C21.0015 9.3875 21.0273 9.51875 20.963 9.63125L19.9344 11.3625C19.8701 11.475 19.7351 11.5188 19.6194 11.475L18.3401 10.975C18.0765 11.1687 17.7872 11.3375 17.4722 11.4625L17.2793 12.7875C17.2665 12.9125 17.1572 13 17.0286 13H14.9714C14.8428 13 14.74 12.9125 14.7143 12.7875L14.5214 11.4625C14.2064 11.3375 13.9235 11.175 13.6535 10.975L12.3742 11.475C12.2585 11.5125 12.1235 11.475 12.0592 11.3625L11.0306 9.63125C10.9727 9.525 10.9985 9.3875 11.0949 9.3125L12.1813 8.4875C12.1556 8.33125 12.1428 8.1625 12.1428 8C12.1428 7.8375 12.1621 7.66875 12.1878 7.5125L11.1013 6.6875C10.9985 6.6125 10.9727 6.48125 11.037 6.36875L12.0656 4.6375C12.1299 4.525 12.2649 4.48125 12.3806 4.525L13.6599 5.025C13.9235 4.83125 14.2128 4.6625 14.5278 4.5375L14.7207 3.2125C14.74 3.0875 14.8428 3 14.9714 3H17.0286C17.1572 3 17.2665 3.0875 17.2857 3.2125L17.4786 4.5375C17.7936 4.6625 18.0765 4.825 18.3465 5.025L19.6258 4.525C19.7415 4.4875 19.8765 4.525 19.9408 4.6375L20.9694 6.36875C21.0273 6.475 21.0015 6.6125 20.9051 6.6875L19.8187 7.5125C19.8444 7.66875 19.8572 7.83125 19.8572 8ZM14.0714 8C14.0714 9.03125 14.9393 9.875 16 9.875C17.0607 9.875 17.9286 9.03125 17.9286 8C17.9286 6.96875 17.0607 6.125 16 6.125C14.9393 6.125 14.0714 6.96875 14.0714 8Z" fill="#757575"/>
</svg>
