<svg width="24" height="24" viewBox="0 0 24 24" fill="none" xmlns="http://www.w3.org/2000/svg">
<circle cx="12" cy="12" r="10.5" stroke="#C62828" stroke-width="2"/>
<path fill-rule="evenodd" clip-rule="evenodd" d="M16.48 15.1612V9.75961C16.48 7.97401 14.8096 7.58361 12.6336 7.52601L13.12 6.55961H15.2V5.59961H8.80002V6.55961H11.84L11.3536 7.53241C9.35042 7.59001 7.52002 7.98681 7.52002 9.75961V15.1612C7.52002 16.0892 8.28162 16.8636 9.17762 17.062L8.16002 18.0796V18.3996H9.58722L10.8672 17.1196H13.28L14.56 18.3996H15.84V18.0796L14.88 17.1196H14.8288C15.9104 17.1196 16.48 16.2428 16.48 15.1612ZM12 16.1596C11.4688 16.1596 11.04 15.7308 11.04 15.1996C11.04 14.6684 11.4688 14.2396 12 14.2396C12.5312 14.2396 12.96 14.6684 12.96 15.1996C12.96 15.7308 12.5312 16.1596 12 16.1596ZM8.80004 13.2796H15.2V10.0796H8.80004V13.2796Z" fill="#C62828"/>
</svg>
