<svg width="13" height="13" viewBox="0 0 13 13" fill="none" xmlns="http://www.w3.org/2000/svg">
<path fill-rule="evenodd" clip-rule="evenodd" d="M5.86656 3.57754C6.13174 2.62939 5.89125 1.56964 5.14705 0.823958C4.40532 0.0851929 3.35792 -0.157276 2.4152 0.0985263L4.01174 1.69458L3.59298 3.25803L2.02755 3.6768L0.431496 2.08174C0.176681 3.02396 0.418657 4.07137 1.1589 4.81211C1.93471 5.5884 3.05273 5.81606 4.03051 5.49803L4.0394 5.50692L10.6068 12.0743C10.8666 12.3336 11.2073 12.4649 11.5475 12.4649C11.8883 12.4649 12.228 12.3336 12.4888 12.0743C13.0078 11.5563 13.0078 10.7143 12.4888 10.1924L5.86656 3.57754ZM11.6621 11.8511C11.3826 11.8511 11.1559 11.6235 11.1559 11.343C11.1559 11.0615 11.3826 10.8348 11.6621 10.8348C11.9436 10.8348 12.1713 11.0615 12.1713 11.343C12.1717 11.6235 11.9441 11.8511 11.6621 11.8511Z" fill="#D8D8D8"/>
</svg>
