<svg width="23" height="24" viewBox="0 0 23 24" fill="none" xmlns="http://www.w3.org/2000/svg">
<path d="M17.4762 10.8094H13.4286C13.2971 10.8094 13.1905 10.7028 13.1905 10.5713V6.52373C13.1905 5.86629 12.6575 5.33325 12 5.33325C11.3426 5.33325 10.8096 5.86629 10.8096 6.52373V10.5713C10.8096 10.7028 10.703 10.8094 10.5715 10.8094H6.52385C5.86641 10.8094 5.33337 11.3425 5.33337 11.9999C5.33337 12.6574 5.86641 13.1904 6.52385 13.1904H10.5715C10.703 13.1904 10.8096 13.297 10.8096 13.4285V17.4761C10.8096 18.1335 11.3426 18.6666 12 18.6666C12.6575 18.6666 13.1905 18.1335 13.1905 17.4761V13.4285C13.1905 13.297 13.2971 13.1904 13.4286 13.1904H17.4762C18.1337 13.1904 18.6667 12.6574 18.6667 11.9999C18.6667 11.3425 18.1337 10.8094 17.4762 10.8094Z" fill="#008B98"/>
</svg>
