<svg width="17" height="17" viewBox="0 0 17 17" fill="none" xmlns="http://www.w3.org/2000/svg">
<path fill-rule="evenodd" clip-rule="evenodd" d="M6.71885 1.52995C7.6491 2.46205 7.94971 3.78674 7.61823 4.97192L15.896 13.2404C16.5448 13.8929 16.5448 14.9454 15.896 15.5929C15.5701 15.917 15.1454 16.0812 14.7195 16.0812C14.2942 16.0812 13.8682 15.917 13.5435 15.5929L5.33428 7.38365L5.32317 7.37254C4.10095 7.77007 2.70342 7.4855 1.73366 6.51513C0.808355 5.58921 0.505886 4.27995 0.824405 3.10217L2.81947 5.096L4.77626 4.57254L5.29971 2.61822L3.30403 0.623158C4.48243 0.303405 5.79169 0.606491 6.71885 1.52995ZM14.23 14.6787C14.23 15.0293 14.5133 15.3139 14.8627 15.3139C15.2151 15.3139 15.4997 15.0293 15.4991 14.6787C15.4991 14.3269 15.2145 14.0435 14.8627 14.0435C14.5133 14.0435 14.23 14.3269 14.23 14.6787Z" fill="#979797"/>
</svg>
