<svg width="18" height="18" viewBox="0 0 18 18" fill="none" xmlns="http://www.w3.org/2000/svg">
<path fill-rule="evenodd" clip-rule="evenodd" d="M12.5783 11.1488H11.8255L11.5587 10.8915C12.4926 9.80518 13.0548 8.39485 13.0548 6.86064C13.0548 3.43964 10.2818 0.666626 6.86076 0.666626C3.43976 0.666626 0.666748 3.43964 0.666748 6.86064C0.666748 10.2816 3.43976 13.0547 6.86076 13.0547C8.39497 13.0547 9.8053 12.4924 10.8916 11.5586L11.1489 11.8254V12.5782L15.9136 17.3333L17.3334 15.9134L12.5783 11.1488ZM6.86076 11.1488C4.48798 11.1488 2.5726 9.23342 2.5726 6.86064C2.5726 4.48786 4.48798 2.57248 6.86076 2.57248C9.23355 2.57248 11.1489 4.48786 11.1489 6.86064C11.1489 9.23342 9.23355 11.1488 6.86076 11.1488Z" fill="#008B98"/>
</svg>
