<svg width="21" height="20" viewBox="0 0 21 20" fill="none" xmlns="http://www.w3.org/2000/svg">
<path fill-rule="evenodd" clip-rule="evenodd" d="M17.0353 14.94V6.5C17.0353 3.71 14.4253 3.1 11.0253 3.01L11.7853 1.5H15.0353V0H5.03532V1.5H9.78532L9.02532 3.02C6.56577 3.09072 4.27294 3.48871 3.40354 5H5.3595C6.44133 5 7.24922 5.95984 7.10338 7.00002H15.0354V12H5.81361L5.45533 13.3758C6.16439 13.817 6.63638 14.6034 6.63638 15.5C6.63638 16.5112 6.03603 17.3822 5.17231 17.7759C5.31991 17.8309 5.47134 17.8759 5.62532 17.91L4.03532 19.5V20H6.26532L8.26532 18H12.0353L14.0353 20H16.0353V19.5L14.5353 18H14.4553C16.1453 18 17.0353 16.63 17.0353 14.94ZM3.03532 10.6733L2.05337 6.74553C1.95869 6.36684 2.24511 6.00001 2.63545 6.00001H5.51075C5.90109 6.00001 6.1875 6.36684 6.09283 6.74553L4.65518 12.4961C4.50369 13.1021 3.64251 13.1021 3.49101 12.4961L3.03654 10.6782V13.2543L3.03532 13.2549V10.6733ZM10.0352 16.5C9.20516 16.5 8.53516 15.83 8.53516 15C8.53516 14.17 9.20516 13.5 10.0352 13.5C10.8652 13.5 11.5352 14.17 11.5352 15C11.5352 15.83 10.8652 16.5 10.0352 16.5ZM2.60254 15.5598C2.60254 14.7475 3.26101 14.0891 4.07328 14.0891C4.88555 14.0891 5.54402 14.7475 5.54402 15.5598C5.54402 16.3721 4.88555 17.0305 4.07328 17.0305C3.26101 17.0305 2.60254 16.3721 2.60254 15.5598Z" fill="#757575"/>
</svg>
