<svg width="106" height="28" viewBox="0 0 106 28" fill="none" xmlns="http://www.w3.org/2000/svg">
<mask id="path-1-inside-1" fill="white">
<path fill-rule="evenodd" clip-rule="evenodd" d="M4 0H102C104.209 0 106 1.79086 106 4V20C106 22.2091 104.209 24 102 24H95.0494L92 27.1564L88.9506 24H4C1.79086 24 0 22.2091 0 20V4C0 1.79086 1.79086 0 4 0Z"/>
</mask>
<path fill-rule="evenodd" clip-rule="evenodd" d="M4 0H102C104.209 0 106 1.79086 106 4V20C106 22.2091 104.209 24 102 24H95.0494L92 27.1564L88.9506 24H4C1.79086 24 0 22.2091 0 20V4C0 1.79086 1.79086 0 4 0Z" fill="#141419"/>
<path d="M95.0494 24V23H94.625L94.3302 23.3052L95.0494 24ZM92 27.1564L91.2808 27.8512L92 28.5956L92.7192 27.8512L92 27.1564ZM88.9506 24L89.6698 23.3052L89.375 23H88.9506V24ZM102 -1H4V1H102V-1ZM107 4C107 1.23858 104.761 -1 102 -1V1C103.657 1 105 2.34314 105 4H107ZM107 20V4H105V20H107ZM102 25C104.761 25 107 22.7614 107 20H105C105 21.6569 103.657 23 102 23V25ZM95.0494 25H102V23H95.0494V25ZM94.3302 23.3052L91.2808 26.4616L92.7192 27.8512L95.7686 24.6948L94.3302 23.3052ZM92.7192 26.4616L89.6698 23.3052L88.2314 24.6948L91.2808 27.8512L92.7192 26.4616ZM4 25H88.9506V23H4V25ZM-1 20C-1 22.7614 1.23857 25 4 25V23C2.34314 23 1 21.6569 1 20H-1ZM-1 4V20H1V4H-1ZM4 -1C1.23858 -1 -1 1.23858 -1 4H1C1 2.34315 2.34315 1 4 1V-1Z" fill="#5D5D5D" mask="url(#path-1-inside-1)"/>
</svg>
