<svg width="21" height="21" viewBox="0 0 21 21" fill="none" xmlns="http://www.w3.org/2000/svg">
<path fill-rule="evenodd" clip-rule="evenodd" d="M3.7223 8.42348C3.61624 8.31848 3.44452 8.31848 3.33846 8.42348C2.74755 9.00848 2.42432 9.78348 2.42432 10.6135C2.42432 11.4385 2.74755 12.2185 3.33846 12.8035C3.38896 12.8535 3.45967 12.8835 3.53038 12.8835C3.60108 12.8835 3.66674 12.8585 3.7223 12.8035C3.82836 12.6985 3.82836 12.5285 3.7223 12.4235C3.2324 11.9385 2.96472 11.2985 2.96472 10.6135C2.96472 9.92848 3.2324 9.28348 3.7223 8.80348C3.82836 8.69848 3.82836 8.52848 3.7223 8.42348Z" fill="#D8D8D8"/>
<path fill-rule="evenodd" clip-rule="evenodd" d="M4.6667 12.2679C4.73741 12.2679 4.80306 12.2429 4.85862 12.1879C4.96468 12.0829 4.96468 11.9129 4.85862 11.8079C4.1667 11.1229 4.1667 10.0129 4.85862 9.32789C4.96468 9.22289 4.96468 9.05289 4.85862 8.94789C4.75256 8.84289 4.58084 8.84289 4.47478 8.94789C3.57579 9.83789 3.57579 11.2879 4.47478 12.1829C4.53034 12.2429 4.60104 12.2679 4.6667 12.2679Z" fill="#D8D8D8"/>
<path fill-rule="evenodd" clip-rule="evenodd" d="M17.7022 8.42348C17.5961 8.31848 17.4244 8.31848 17.3183 8.42348C17.2123 8.52848 17.2123 8.69848 17.3183 8.80348C17.8082 9.28848 18.0759 9.92848 18.0759 10.6135C18.0759 11.2985 17.8082 11.9435 17.3183 12.4235C17.2123 12.5285 17.2123 12.6985 17.3183 12.8035C17.3688 12.8535 17.4395 12.8835 17.5102 12.8835C17.5809 12.8835 17.6466 12.8585 17.7022 12.8035C18.2931 12.2185 18.6163 11.4435 18.6163 10.6135C18.6163 9.78348 18.2931 9.00848 17.7022 8.42348Z" fill="#D8D8D8"/>
<path fill-rule="evenodd" clip-rule="evenodd" d="M16.187 8.95802C16.0809 9.06302 16.0809 9.23302 16.187 9.33802C16.8789 10.023 16.8789 11.133 16.187 11.818C16.0809 11.923 16.0809 12.093 16.187 12.198C16.2375 12.248 16.3082 12.278 16.3789 12.278C16.4496 12.278 16.5153 12.253 16.5708 12.198C17.4698 11.308 17.4698 9.85802 16.5708 8.96302C16.4647 8.85302 16.293 8.85302 16.187 8.95802Z" fill="#D8D8D8"/>
<path fill-rule="evenodd" clip-rule="evenodd" d="M15.1163 8.34305V10.748C15.1163 12.398 15.7526 13.863 17.0203 15.098C17.091 15.168 17.1163 15.273 17.086 15.368C17.0557 15.463 16.9748 15.538 16.8738 15.553L14.3132 15.993C13.8334 16.073 13.394 16.138 12.9849 16.193C12.5102 17.108 11.586 17.693 10.5759 17.693C9.56071 17.693 8.63646 17.108 8.16677 16.193C7.75262 16.138 7.31828 16.068 6.83343 15.988L4.27283 15.548C4.17182 15.528 4.09101 15.458 4.06071 15.363C4.0304 15.268 4.05565 15.163 4.12636 15.093C5.32333 13.913 5.93444 12.448 5.93444 10.743V8.33805C5.94454 6.65305 7.14151 5.35305 8.32333 4.81305C8.59606 4.69305 8.87889 4.59805 9.17182 4.52305V4.33305C9.17182 3.59805 9.77788 2.99805 10.5203 2.99805C11.2627 2.99805 11.8688 3.59805 11.8688 4.33305V4.49805C12.192 4.57805 12.5102 4.67805 12.8132 4.81305C13.8839 5.29805 15.1264 6.51305 15.1163 8.34305ZM10.5203 3.53805C10.0759 3.53805 9.71222 3.89805 9.71222 4.33805H9.70717V4.40305C10.2425 4.31805 10.793 4.31305 11.3284 4.38805V4.33805C11.3284 3.89805 10.9647 3.53805 10.5203 3.53805ZM7.55565 8.61304C7.40414 8.61304 7.28293 8.49304 7.28798 8.34304C7.29808 7.09304 8.29808 6.30304 8.89404 6.03304C9.93444 5.55804 11.2122 5.55804 12.2577 6.03304C12.394 6.09304 12.4546 6.25304 12.389 6.38804C12.3284 6.52304 12.1668 6.58304 12.0304 6.51804C11.1264 6.10804 10.0152 6.10804 9.11626 6.51804C8.64151 6.73804 7.83343 7.36804 7.82333 8.34804C7.82333 8.49304 7.70212 8.61304 7.55565 8.61304ZM10.5708 17.158C11.2526 17.158 11.894 16.823 12.3031 16.273H12.293C12.2476 16.278 12.2008 16.2818 12.1541 16.2855C12.1074 16.2893 12.0607 16.293 12.0153 16.298C11.9546 16.303 11.894 16.308 11.8385 16.313C11.8158 16.3155 11.793 16.3168 11.7703 16.318C11.7476 16.3193 11.7248 16.3205 11.7021 16.323C10.9193 16.378 10.1971 16.378 9.41424 16.323C9.37384 16.323 9.33848 16.323 9.30313 16.318L9.15161 16.303C9.09853 16.298 9.04671 16.293 8.9949 16.288C8.94318 16.283 8.89146 16.278 8.83848 16.273C9.24757 16.823 9.88899 17.158 10.5708 17.158Z" fill="#D8D8D8"/>
</svg>

