<svg width="21" height="22" viewBox="0 0 21 22" fill="none" xmlns="http://www.w3.org/2000/svg">
<path fill-rule="evenodd" clip-rule="evenodd" d="M8.58283 8.97192C8.91431 7.78674 8.6137 6.46205 7.68345 5.52995C6.75629 4.60649 5.44703 4.3034 4.26863 4.62316L6.26431 6.61822L5.74086 8.57254L3.78407 9.096L1.789 7.10217C1.47049 8.27995 1.77295 9.58921 2.69826 10.5151C3.66802 11.4855 5.06555 11.7701 6.28777 11.3725L6.29888 11.3837L14.5081 19.5929C14.8328 19.917 15.2588 20.0812 15.6841 20.0812C16.11 20.0812 16.5347 19.917 16.8606 19.5929C17.5094 18.9454 17.5094 17.8929 16.8606 17.2404L8.58283 8.97192ZM15.8273 19.3139C15.4779 19.3139 15.1946 19.0293 15.1946 18.6787C15.1946 18.3269 15.4779 18.0435 15.8273 18.0435C16.1791 18.0435 16.4637 18.3269 16.4637 18.6787C16.4643 19.0293 16.1797 19.3139 15.8273 19.3139Z" fill="#43A047"/>
<path fill-rule="evenodd" clip-rule="evenodd" d="M13.6365 10.0375C13.4392 10.0375 13.2417 9.95926 13.0912 9.80268L10.3646 6.96755C10.0634 6.65438 10.0634 6.14672 10.3646 5.83355C10.6658 5.52038 11.154 5.52038 11.4552 5.83355L13.6365 8.10157L18.5444 2.99851C18.8456 2.68544 19.3339 2.68534 19.6349 2.99851C19.9362 3.31168 19.9362 3.81946 19.6349 4.13251L14.1818 9.80268C14.0312 9.95917 13.8338 10.0375 13.6365 10.0375Z" fill="#43A047"/>
</svg>
