<svg width="21" height="21" viewBox="0 0 21 21" fill="none" xmlns="http://www.w3.org/2000/svg">
<path fill-rule="evenodd" clip-rule="evenodd" d="M3.91647 17.9352H17.0835C18.4299 17.9352 19.2693 16.4751 18.5961 15.3123L12.0125 3.93755C11.3393 2.77472 9.66066 2.77472 8.98744 3.93755L2.40392 15.3123C1.7307 16.4751 2.57004 17.9352 3.91647 17.9352ZM10.4999 11.8151C10.019 11.8151 9.62558 11.4216 9.62558 10.9407V9.19213C9.62558 8.71127 10.019 8.31783 10.4999 8.31783C10.9808 8.31783 11.3742 8.71127 11.3742 9.19213V10.9407C11.3742 11.4216 10.9808 11.8151 10.4999 11.8151ZM9.62558 15.3123H11.3742V13.5637H9.62558V15.3123Z" fill="#D8D8D8"/>
</svg>
