<svg width="76" height="39" viewBox="0 0 76 39" fill="none" xmlns="http://www.w3.org/2000/svg">
<path d="M2.09658 2.55403C2.09658 1.85036 2.66701 1.27993 3.37068 1.27993H73.4464C74.15 1.27993 74.7205 1.85036 74.7205 2.55403V30.1596C74.7205 30.8633 74.15 31.4337 73.4464 31.4337H3.37068C2.66701 31.4337 2.09658 30.8633 2.09658 30.1596V2.55403Z" stroke="#5D5D5D" stroke-width="0.849402" stroke-linejoin="round"/>
<circle cx="14.4123" cy="33.8705" r="2.97291" stroke="#D8D8D8" stroke-width="0.849402"/>
<circle cx="23.756" cy="33.8705" r="2.97291" stroke="#D8D8D8" stroke-width="0.849402"/>
<path fill-rule="evenodd" clip-rule="evenodd" d="M14.4131 30.4729L23.7565 30.4729L21.2046 33.4521H16.9282L14.4131 30.4729Z" fill="#D8D8D8"/>
<circle cx="54.5871" cy="33.8705" r="2.97291" stroke="#D8D8D8" stroke-width="0.849402"/>
<circle cx="63.9308" cy="33.8705" r="2.97291" stroke="#D8D8D8" stroke-width="0.849402"/>
<path fill-rule="evenodd" clip-rule="evenodd" d="M54.5869 30.4729L63.9303 30.4729L61.3784 33.4521H57.1021L54.5869 30.4729Z" fill="#D8D8D8"/>
<g clip-path="url(#clip0)">
<rect x="25.8799" y="14.4458" width="25.4821" height="10.1928" rx="1.6988" fill="#D8D8D8"/>
<path d="M28.6651 21.2952V16.4642H30.0918C30.5187 16.4642 30.897 16.5593 31.2265 16.7495C31.5583 16.9398 31.8149 17.2096 31.9963 17.5591C32.1777 17.9086 32.2684 18.309 32.2684 18.7602V19.0024C32.2684 19.4603 32.1766 19.8629 31.993 20.2102C31.8116 20.5575 31.5517 20.8251 31.2133 21.0131C30.877 21.2012 30.4911 21.2952 30.0553 21.2952H28.6651ZM29.5045 17.1411V20.6249H30.052C30.4922 20.6249 30.8295 20.4878 31.064 20.2135C31.3006 19.937 31.4212 19.5411 31.4256 19.0257V18.7569C31.4256 18.2327 31.3117 17.8323 31.0839 17.5558C30.856 17.2793 30.5253 17.1411 30.0918 17.1411H29.5045ZM34.1928 16.4642L35.5864 20.1671L36.9766 16.4642H38.0616V21.2952H37.2254V19.7025L37.3084 17.5724L35.8817 21.2952H35.2811L33.8577 17.5757L33.9406 19.7025V21.2952H33.1045V16.4642H34.1928ZM42.7432 19.7224C42.6946 20.2378 42.5043 20.6404 42.1725 20.9302C41.8407 21.2177 41.3995 21.3615 40.8487 21.3615C40.4638 21.3615 40.1242 21.2708 39.8301 21.0895C39.5381 20.9059 39.3124 20.6459 39.1532 20.3097C38.9939 19.9735 38.911 19.5831 38.9043 19.1385V18.6872C38.9043 18.2316 38.9851 17.8301 39.1466 17.4828C39.308 17.1355 39.5392 16.8679 39.84 16.6799C40.143 16.4918 40.4925 16.3978 40.8885 16.3978C41.4216 16.3978 41.8507 16.5427 42.1759 16.8325C42.501 17.1223 42.6902 17.5315 42.7432 18.0601H41.9071C41.8673 17.7129 41.7655 17.4629 41.6019 17.3103C41.4404 17.1554 41.2026 17.078 40.8885 17.078C40.5235 17.078 40.2426 17.2118 40.0457 17.4795C39.8511 17.7449 39.7515 18.1353 39.7471 18.6507V19.0788C39.7471 19.6008 39.84 19.9989 40.0258 20.2732C40.2138 20.5475 40.4881 20.6847 40.8487 20.6847C41.1783 20.6847 41.426 20.6106 41.5919 20.4624C41.7578 20.3142 41.8629 20.0675 41.9071 19.7224H42.7432ZM46.2006 20.1704H44.3292L43.9377 21.2952H43.0651L44.89 16.4642H45.6431L47.4714 21.2952H46.5954L46.2006 20.1704ZM44.5648 19.4935H45.965L45.2649 17.4894L44.5648 19.4935Z" fill="#5D5D5D"/>
</g>
<defs>
<clipPath id="clip0">
<rect width="25.4821" height="10.1928" fill="white" transform="translate(25.8799 14.4458)"/>
</clipPath>
</defs>
</svg>
