<svg width="34" height="34" viewBox="0 0 34 34" fill="none" xmlns="http://www.w3.org/2000/svg">
<circle cx="17" cy="17" r="17" fill="#333D3D"/>
<path fill-rule="evenodd" clip-rule="evenodd" d="M19.8381 8.97607V7.98852C19.8381 7.44537 20.2825 7.00098 20.8257 7.00098C21.3688 7.00098 21.8132 7.44537 21.8132 7.98852V8.97607H22.8008C23.8871 8.97607 24.7759 9.86486 24.7759 10.9512V15.5667C24.1618 15.275 23.498 15.0711 22.8006 14.9714V13.9138H8.97494V23.7892C8.97494 24.3324 9.41934 24.7768 9.96249 24.7768H15.5654C15.9171 25.517 16.3965 26.1849 16.975 26.7519H8.97514C7.87896 26.7519 7.00005 25.8631 7.00005 24.7768L7.00992 10.9512C7.00992 9.86486 7.87896 8.97607 8.97514 8.97607H9.96268V7.98852C9.96268 7.44537 10.4071 7.00098 10.9502 7.00098C11.4934 7.00098 11.9378 7.44537 11.9378 7.98852V8.97607H19.8381Z" fill="#F5F5F5"/>
<path fill-rule="evenodd" clip-rule="evenodd" d="M16.6288 21.8146C16.6288 18.9054 19.031 16.5493 21.9632 16.6299C24.665 16.7048 26.9231 18.963 26.998 21.6648C27.0787 24.597 24.7226 26.9992 21.8134 26.9992C20.886 26.9992 20.0219 26.7515 19.2672 26.3309C18.9388 26.1466 18.887 25.6915 19.152 25.4265C19.3306 25.2422 19.6071 25.1961 19.8318 25.3228C20.4193 25.6512 21.0933 25.847 21.8134 25.847C24.0601 25.847 25.8747 24.0094 25.8459 21.7569C25.8171 19.614 24.014 17.8109 21.871 17.7821C19.6128 17.7533 17.781 19.5679 17.781 21.8146H18.8121C19.0713 21.8146 19.1981 22.1256 19.0195 22.3042L17.4123 23.9114C17.2971 24.0267 17.1185 24.0267 17.0033 23.9114L15.396 22.3042C15.2117 22.1256 15.3384 21.8146 15.5977 21.8146H16.6288ZM21.8134 20.6624C22.4471 20.6624 22.9655 21.1809 22.9655 21.8146C22.9655 22.4482 22.4471 22.9667 21.8134 22.9667C21.1797 22.9667 20.6613 22.4482 20.6613 21.8146C20.6613 21.1809 21.1797 20.6624 21.8134 20.6624Z" fill="#F5F5F5"/>
</svg>
