<svg width="34" height="34" viewBox="0 0 34 34" fill="none" xmlns="http://www.w3.org/2000/svg">
<circle cx="17.0011" cy="17" r="17" fill="#333D3D"/>
<path d="M20.5335 15.9658H13.4506L12.8695 18.0347H21.1097L20.5335 15.9658Z" fill="#F5F5F5"/>
<path d="M18.3145 7.99664C18.2343 7.70993 18.0626 7.45732 17.8254 7.27737C17.5883 7.09741 17.2988 7 17.0011 7C16.7034 7 16.4138 7.09741 16.1767 7.27737C15.9395 7.45732 15.7678 7.70993 15.6876 7.99664L14.4184 12.5176H19.5734L18.3145 7.99664Z" fill="#F5F5F5"/>
<path d="M24.343 24.241H22.8379L22.07 21.4824H11.9016L11.1271 24.241H9.65924C9.5366 24.2409 9.41515 24.2651 9.30184 24.312C9.18853 24.3589 9.08558 24.4277 8.99886 24.5144C8.91214 24.6011 8.84336 24.704 8.79645 24.8174C8.74954 24.9307 8.72542 25.0521 8.72546 25.1748V26.0658C8.72542 26.1884 8.74954 26.3098 8.79645 26.4232C8.84336 26.5365 8.91214 26.6394 8.99886 26.7261C9.08558 26.8129 9.18853 26.8816 9.30184 26.9286C9.41515 26.9755 9.5366 26.9996 9.65924 26.9995H24.343C24.4657 26.9996 24.5871 26.9755 24.7004 26.9286C24.8137 26.8816 24.9167 26.8129 25.0034 26.7261C25.0901 26.6394 25.1589 26.5365 25.2058 26.4232C25.2527 26.3098 25.2769 26.1884 25.2768 26.0658V25.1748C25.2769 25.0521 25.2527 24.9307 25.2058 24.8174C25.1589 24.704 25.0901 24.6011 25.0034 24.5144C24.9167 24.4277 24.8137 24.3589 24.7004 24.312C24.5871 24.2651 24.4657 24.2409 24.343 24.241Z" fill="#F5F5F5"/>
</svg>
