<svg width="14" height="16" viewBox="0 0 14 16" fill="none" xmlns="http://www.w3.org/2000/svg">
<path d="M9.64934 7.22461H4.33713L3.90137 8.7763H10.0815L9.64934 7.22461Z" fill="#F5F5F5"/>
<path d="M7.98459 1.24748C7.92448 1.03245 7.79567 0.84299 7.6178 0.708024C7.43994 0.573059 7.2228 0.5 6.99952 0.5C6.77625 0.5 6.55911 0.573059 6.38125 0.708024C6.20338 0.84299 6.07457 1.03245 6.01446 1.24748L5.0625 4.63818H8.92879L7.98459 1.24748Z" fill="#F5F5F5"/>
<path d="M12.5062 13.4312H11.3773L10.8014 11.3623H3.17507L2.59422 13.4312H1.4933C1.40132 13.4312 1.31024 13.4493 1.22525 13.4845C1.14027 13.5196 1.06305 13.5712 0.998015 13.6363C0.932976 13.7013 0.881392 13.7785 0.846209 13.8635C0.811026 13.9485 0.792935 14.0396 0.792969 14.1316V14.7998C0.792935 14.8918 0.811026 14.9829 0.846209 15.0679C0.881392 15.1528 0.932976 15.2301 0.998015 15.2951C1.06305 15.3601 1.14027 15.4117 1.22525 15.4469C1.31024 15.4821 1.40132 15.5002 1.4933 15.5001H12.5062C12.5981 15.5002 12.6892 15.4821 12.7742 15.4469C12.8592 15.4117 12.9364 15.3601 13.0014 15.2951C13.0665 15.2301 13.1181 15.1528 13.1532 15.0679C13.1884 14.9829 13.2065 14.8918 13.2065 14.7998V14.1316C13.2065 14.0396 13.1884 13.9485 13.1532 13.8635C13.1181 13.7785 13.0665 13.7013 13.0014 13.6363C12.9364 13.5712 12.8592 13.5196 12.7742 13.4845C12.6892 13.4493 12.5981 13.4312 12.5062 13.4312Z" fill="#F5F5F5"/>
</svg>
