<svg width="66" height="14" viewBox="0 0 66 14" fill="none" xmlns="http://www.w3.org/2000/svg">
<rect y="2" width="10" height="10" rx="5" fill="#FF8F00"/>
<path d="M17.3496 9.81641H21.2227V11H15.8672V2.46875H17.3496V9.81641ZM28.993 6.95703C28.993 7.79297 28.8484 8.52734 28.5594 9.16016C28.2703 9.78906 27.8562 10.2734 27.3172 10.6133C26.782 10.9492 26.1648 11.1172 25.4656 11.1172C24.7742 11.1172 24.157 10.9492 23.6141 10.6133C23.075 10.2734 22.657 9.79102 22.3602 9.16602C22.0672 8.54102 21.9187 7.82031 21.9148 7.00391V6.52344C21.9148 5.69141 22.0613 4.95703 22.3543 4.32031C22.6512 3.68359 23.0672 3.19727 23.6023 2.86133C24.1414 2.52148 24.7586 2.35156 25.4539 2.35156C26.1492 2.35156 26.7645 2.51953 27.2996 2.85547C27.8387 3.1875 28.2547 3.66797 28.5477 4.29688C28.8406 4.92188 28.9891 5.65039 28.993 6.48242V6.95703ZM27.5105 6.51172C27.5105 5.56641 27.3309 4.8418 26.9715 4.33789C26.616 3.83398 26.1102 3.58203 25.4539 3.58203C24.8133 3.58203 24.3113 3.83398 23.948 4.33789C23.5887 4.83789 23.4051 5.54688 23.3973 6.46484V6.95703C23.3973 7.89453 23.5789 8.61914 23.9422 9.13086C24.3094 9.64258 24.8172 9.89844 25.4656 9.89844C26.1219 9.89844 26.6258 9.64844 26.9773 9.14844C27.3328 8.64844 27.5105 7.91797 27.5105 6.95703V6.51172ZM37.3609 8.89062L38.6734 2.46875H40.1441L38.1754 11H36.7574L35.1344 4.77148L33.4762 11H32.0523L30.0836 2.46875H31.5543L32.8785 8.87891L34.5074 2.46875H35.7496L37.3609 8.89062Z" fill="#FF8F00"/>
</svg>
