<svg width="66" height="14" viewBox="0 0 66 14" fill="none" xmlns="http://www.w3.org/2000/svg">
<rect y="2" width="10" height="10" rx="5" fill="#C62828"/>
<path d="M22.6406 11H21.1641V7.20898H17.3496V11H15.8672V2.46875H17.3496V6.01953H21.1641V2.46875H22.6406V11ZM26.1629 11H24.6863V2.46875H26.1629V11ZM34.7242 9.89258C34.4156 10.2949 33.9879 10.5996 33.441 10.8066C32.8941 11.0137 32.273 11.1172 31.5777 11.1172C30.8629 11.1172 30.2301 10.9551 29.6793 10.6309C29.1285 10.3066 28.7027 9.84375 28.402 9.24219C28.1051 8.63672 27.9508 7.93164 27.9391 7.12695V6.45898C27.9391 5.16992 28.2477 4.16406 28.8648 3.44141C29.482 2.71484 30.3434 2.35156 31.4488 2.35156C32.398 2.35156 33.152 2.58594 33.7105 3.05469C34.2691 3.52344 34.6051 4.19922 34.7184 5.08203H33.2652C33.1012 4.05469 32.5055 3.54102 31.4781 3.54102C30.8141 3.54102 30.3082 3.78125 29.9605 4.26172C29.6168 4.73828 29.4391 5.43945 29.4273 6.36523V7.02148C29.4273 7.94336 29.6207 8.66016 30.0074 9.17188C30.398 9.67969 30.9391 9.93359 31.6305 9.93359C32.3883 9.93359 32.9273 9.76172 33.2477 9.41797V7.74805H31.4898V6.62305H34.7242V9.89258ZM43.3266 11H41.85V7.20898H38.0355V11H36.5531V2.46875H38.0355V6.01953H41.85V2.46875H43.3266V11Z" fill="#C62828"/>
</svg>
