<svg width="18" height="18" viewBox="0 0 18 18" fill="none" xmlns="http://www.w3.org/2000/svg">
<path fill-rule="evenodd" clip-rule="evenodd" d="M10.9806 8.99939L16.9229 3.0571C17.4699 2.51011 17.4699 1.62326 16.9229 1.07634C16.3759 0.529345 15.4892 0.529345 14.9422 1.07634L8.99981 7.0187L3.05745 1.07626C2.51046 0.529267 1.62368 0.529267 1.07669 1.07626C0.529775 1.62326 0.529775 2.51011 1.07669 3.05702L7.01905 8.99931L1.07669 14.9417C0.529775 15.4887 0.529775 16.3755 1.07669 16.9224C1.62368 17.4694 2.51046 17.4694 3.05745 16.9224L8.99981 10.9801L14.9422 16.9224C15.4891 17.4694 16.3759 17.4694 16.9229 16.9224C17.4699 16.3754 17.4699 15.4887 16.9229 14.9417L10.9806 8.99939Z" fill="#757575"/>
</svg>
