<svg width="21" height="21" viewBox="0 0 21 21" fill="none" xmlns="http://www.w3.org/2000/svg">
<path fill-rule="evenodd" clip-rule="evenodd" d="M16.3333 3.83366H15.5V3.00033C15.5 2.54199 15.125 2.16699 14.6667 2.16699C14.2083 2.16699 13.8333 2.54199 13.8333 3.00033V3.83366H7.16667V3.00033C7.16667 2.54199 6.79167 2.16699 6.33333 2.16699C5.875 2.16699 5.5 2.54199 5.5 3.00033V3.83366H4.66667C3.74167 3.83366 3.00833 4.58366 3.00833 5.50033L3 17.167C3 18.0837 3.74167 18.8337 4.66667 18.8337H16.3333C17.25 18.8337 18 18.0837 18 17.167V5.50033C18 4.58366 17.25 3.83366 16.3333 3.83366ZM13.8335 10.1087C13.5918 9.86701 13.1918 9.86701 12.9501 10.1087L9.32513 13.7337L8.00013 12.4087C7.75846 12.167 7.35846 12.167 7.1168 12.4087C6.87513 12.6503 6.87513 13.0503 7.1168 13.292L8.73346 14.9087C9.05846 15.2337 9.58346 15.2337 9.90846 14.9087L13.8251 10.992C14.0751 10.7503 14.0751 10.3503 13.8335 10.1087ZM5.49984 17.167H15.4998C15.9582 17.167 16.3332 16.792 16.3332 16.3337V8.00037H4.6665V16.3337C4.6665 16.792 5.0415 17.167 5.49984 17.167Z" fill="#D8D8D8"/>
</svg>
