<svg width="20" height="18" viewBox="0 0 20 18" fill="none" xmlns="http://www.w3.org/2000/svg">
<path fill-rule="evenodd" clip-rule="evenodd" d="M14.7501 0.12514L19.7501 3.87514C19.9076 3.99264 20.0001 4.17889 20.0001 4.37514C20.0001 4.57139 19.9076 4.75764 19.7501 4.87514L14.7501 8.62514C14.5613 8.76764 14.3063 8.79014 14.0951 8.68389C13.8838 8.57764 13.7501 8.36139 13.7501 8.12514V6.25014L11.3626 6.25014C9.21756 6.25014 7.29006 7.44264 6.33131 9.36139L6.18381 9.65514C6.07631 9.87014 5.85756 10.0001 5.62506 10.0001C5.57756 10.0001 5.52881 9.99514 5.48131 9.98389C5.20006 9.91764 5.00006 9.66514 5.00006 9.37514C5.00006 5.58389 8.08381 2.50014 11.8751 2.50014H13.7501V0.625139C13.7501 0.388889 13.8838 0.17264 14.0963 0.0663895C14.3076 -0.0398605 14.5626 -0.0173605 14.7501 0.12514ZM13.75 15.0001V10.0388H16.25V16.2501C16.25 16.9413 15.6912 17.5001 15 17.5001H1.25C0.56 17.5001 0 16.9413 0 16.2501L0 2.50008C0 1.81008 0.56 1.25008 1.25 1.25008L6.25 1.25008V3.75008H2.5L2.5 15.0001L13.75 15.0001Z" fill="#008B98"/>
</svg>
