<svg width="19" height="18" viewBox="0 0 19 18" fill="none" xmlns="http://www.w3.org/2000/svg">
<path d="M19.0002 9C19.0557 4.0911 15.1259 0.0642223 10.2171 0C5.93808 0.046551 2.30425 3.14587 1.58315 7.364H0.40015C0.243717 7.36511 0.102287 7.45731 0.0381508 7.6C-0.028038 7.74395 -0.00671577 7.913 0.0931492 8.036L2.09315 10.49C2.16753 10.5833 2.28034 10.6376 2.39965 10.6376C2.51896 10.6376 2.63177 10.5833 2.70615 10.49L4.70615 8.036C4.80602 7.913 4.82734 7.74395 4.76115 7.6C4.69672 7.4577 4.55535 7.36593 4.39915 7.365H3.22415C3.92935 4.05271 6.83781 1.67276 10.2241 1.637C14.2355 1.69679 17.4435 4.98846 17.4002 9C17.4435 13.0158 14.2288 16.3092 10.2132 16.363C7.627 16.3463 5.2496 14.9403 3.98915 12.682C3.88663 12.495 3.71273 12.3576 3.50714 12.3011C3.30156 12.2446 3.08184 12.2738 2.89815 12.382C2.51421 12.6147 2.38485 13.1104 2.60615 13.501C4.14758 16.2621 7.05498 17.9807 10.2171 18C15.1259 17.9358 19.0557 13.9089 19.0002 9Z" fill="#D8D8D8"/>
</svg>
