<svg width="24" height="25" viewBox="0 0 24 25" fill="none" xmlns="http://www.w3.org/2000/svg">
<path fill-rule="evenodd" clip-rule="evenodd" d="M19 17.5679V9.12793C19 6.33793 16.39 5.72793 12.99 5.63793L13.75 4.12793H17V2.62793H7V4.12793H11.75L10.99 5.64793C7.86 5.73793 5 6.35793 5 9.12793V17.5679C5 19.0179 6.19 20.2279 7.59 20.5379L6 22.1279V22.6279H8.23L10.23 20.6279H14L16 22.6279H18V22.1279L16.5 20.6279H16.42C18.11 20.6279 19 19.2579 19 17.5679ZM12 19.1279C11.17 19.1279 10.5 18.4579 10.5 17.6279C10.5 16.7979 11.17 16.1279 12 16.1279C12.83 16.1279 13.5 16.7979 13.5 17.6279C13.5 18.4579 12.83 19.1279 12 19.1279ZM7 14.6279H17V9.62793H7V14.6279Z" fill="#757575"/>
</svg>
