<svg width="112" height="58" viewBox="0 0 112 58" fill="none" xmlns="http://www.w3.org/2000/svg">
<path d="M41.6192 2.66205H106.816C108.678 2.66205 110.188 4.17137 110.188 6.0332V43.939C110.188 45.8008 108.678 47.3101 106.816 47.3101H13.8868C7.35184 47.3101 2.44549 41.3393 3.71245 34.9283L3.97612 33.5941C7.52861 15.618 23.2954 2.66205 41.6192 2.66205Z" stroke="#5D5D5D" stroke-width="1.25769" stroke-linejoin="round"/>
<circle cx="20.6233" cy="51.4868" r="4.40192" stroke="#D8D8D8" stroke-width="1.25769"/>
<circle cx="34.458" cy="51.4868" r="4.40192" stroke="#D8D8D8" stroke-width="1.25769"/>
<path fill-rule="evenodd" clip-rule="evenodd" d="M20.6233 46.4561L34.4579 46.4561L30.6794 50.8673H24.3474L20.6233 46.4561Z" fill="#D8D8D8"/>
<path d="M82.3085 51.4868C82.3085 53.9339 80.3813 55.8887 78.039 55.8887C75.6967 55.8887 73.7695 53.9339 73.7695 51.4868C73.7695 49.0398 75.6967 47.0849 78.039 47.0849C80.3813 47.0849 82.3085 49.0398 82.3085 51.4868Z" stroke="#D8D8D8" stroke-width="1.25769"/>
<path d="M95.779 51.4868C95.779 53.9339 93.8518 55.8887 91.5095 55.8887C89.1672 55.8887 87.2399 53.9339 87.2399 51.4868C87.2399 49.0398 89.1672 47.0849 91.5095 47.0849C93.8518 47.0849 95.779 49.0398 95.779 51.4868Z" stroke="#D8D8D8" stroke-width="1.25769"/>
<path fill-rule="evenodd" clip-rule="evenodd" d="M78.0391 46.4561L91.5096 46.4561L87.8305 50.8673H81.6652L78.0391 46.4561Z" fill="#D8D8D8"/>
<g clip-path="url(#clip0_15050:156438)">
<rect x="37.6021" y="22.1562" width="37.7308" height="15.0923" rx="2.51538" fill="#D8D8D8"/>
<path d="M42.9004 32.4141V25.2609H45.013C45.6451 25.2609 46.2052 25.4018 46.6932 25.6834C47.1845 25.9651 47.5644 26.3647 47.833 26.8822C48.1015 27.3997 48.2358 27.9925 48.2358 28.6606V29.0193C48.2358 29.6973 48.0999 30.2933 47.828 30.8076C47.5595 31.3218 47.1746 31.7181 46.6735 31.9965C46.1757 32.2749 45.6041 32.4141 44.9589 32.4141H42.9004ZM44.1434 26.2632V31.4217H44.954C45.6058 31.4217 46.1053 31.2186 46.4524 30.8125C46.8029 30.4031 46.9814 29.8168 46.9879 29.0537V28.6557C46.9879 27.8795 46.8193 27.2867 46.4819 26.8773C46.1446 26.4679 45.6549 26.2632 45.013 26.2632H44.1434ZM51.0853 25.2609L53.1487 30.7437L55.2072 25.2609H56.8137V32.4141H55.5756V30.0559L55.6984 26.9018L53.5859 32.4141H52.6967L50.5891 26.9067L50.7119 30.0559V32.4141H49.4738V25.2609H51.0853ZM63.7457 30.0854C63.6737 30.8485 63.392 31.4446 62.9007 31.8736C62.4094 32.2994 61.756 32.5123 60.9405 32.5123C60.3706 32.5123 59.8678 32.378 59.4322 32.1095C58.9999 31.8376 58.6658 31.4528 58.43 30.9549C58.1942 30.4571 58.0714 29.879 58.0615 29.2207V28.5526C58.0615 27.8779 58.1811 27.2834 58.4202 26.7692C58.6593 26.255 59.0015 25.8587 59.447 25.5803C59.8957 25.3019 60.4131 25.1627 60.9994 25.1627C61.7888 25.1627 62.4241 25.3772 62.9056 25.8063C63.3871 26.2353 63.6671 26.8412 63.7457 27.624H62.5077C62.4487 27.1098 62.2981 26.7397 62.0557 26.5137C61.8166 26.2844 61.4645 26.1698 60.9994 26.1698C60.459 26.1698 60.043 26.368 59.7516 26.7643C59.4633 27.1573 59.3159 27.7354 59.3094 28.4985V29.1323C59.3094 29.9052 59.447 30.4948 59.7221 30.9009C60.0005 31.307 60.4066 31.5101 60.9405 31.5101C61.4285 31.5101 61.7953 31.4004 62.0409 31.1809C62.2866 30.9615 62.4422 30.5963 62.5077 30.0854H63.7457ZM68.8649 30.7486H66.0941L65.5143 32.4141H64.2223L66.9243 25.2609H68.0395L70.7465 32.4141H69.4495L68.8649 30.7486ZM66.4429 29.7464H68.5161L67.4795 26.779L66.4429 29.7464Z" fill="#5D5D5D"/>
</g>
<path d="M25.3059 2.74957V17.5742C25.3059 27.168 17.5286 34.9453 7.93477 34.9453H3.77284L6.38844 20.9456C8.1647 11.4384 15.7877 4.14513 25.3059 2.74957Z" fill="#2616E3" stroke="#5D5D5D" stroke-width="1.25769"/>
<defs>
<clipPath id="clip0_15050:156438">
<rect width="37.7308" height="15.0923" fill="white" transform="translate(37.6021 22.1562)"/>
</clipPath>
</defs>
</svg>
