<svg width="112" height="58" viewBox="0 0 112 58" fill="none" xmlns="http://www.w3.org/2000/svg">
<path d="M4.43506 2.66205H108.195C109.237 2.66205 110.081 3.50668 110.081 4.54859V45.4236C110.081 46.4655 109.237 47.3101 108.195 47.3101H4.43507C3.39316 47.3101 2.54852 46.4655 2.54852 45.4236V4.54859C2.54852 3.50668 3.39316 2.66205 4.43506 2.66205Z" fill="#FF0000" fill-opacity="0.2" stroke="#5D5D5D" stroke-width="1.25769" stroke-linejoin="round"/>
<circle cx="20.7849" cy="51.7847" r="4.40192" stroke="#D8D8D8" stroke-width="1.25769"/>
<circle cx="34.6196" cy="51.7847" r="4.40192" stroke="#D8D8D8" stroke-width="1.25769"/>
<path fill-rule="evenodd" clip-rule="evenodd" d="M20.7849 46.7539L34.6195 46.7539L30.841 51.1651H24.509L20.7849 46.7539Z" fill="#D8D8D8"/>
<circle cx="80.2195" cy="51.7847" r="4.40192" stroke="#D8D8D8" stroke-width="1.25769"/>
<circle cx="94.0542" cy="51.7847" r="4.40192" stroke="#D8D8D8" stroke-width="1.25769"/>
<path fill-rule="evenodd" clip-rule="evenodd" d="M80.2195 46.7539L94.0541 46.7539L90.2756 51.1651H83.9436L80.2195 46.7539Z" fill="#D8D8D8"/>
<g clip-path="url(#clip0_15050:156437)">
<rect x="37.7637" y="22.1562" width="37.7308" height="15.0923" rx="2.51538" fill="#D8D8D8"/>
<path d="M43.0621 32.4141V25.2609H45.1746C45.8067 25.2609 46.3668 25.4018 46.8548 25.6834C47.3461 25.9651 47.726 26.3647 47.9946 26.8822C48.2631 27.3997 48.3974 27.9925 48.3974 28.6606V29.0193C48.3974 29.6973 48.2615 30.2933 47.9897 30.8076C47.7211 31.3218 47.3362 31.7181 46.8351 31.9965C46.3373 32.2749 45.7658 32.4141 45.1205 32.4141H43.0621ZM44.305 26.2632V31.4217H45.1156C45.7674 31.4217 46.2669 31.2186 46.6141 30.8125C46.9645 30.4031 47.143 29.8168 47.1496 29.0537V28.6557C47.1496 27.8795 46.9809 27.2867 46.6435 26.8773C46.3062 26.4679 45.8165 26.2632 45.1746 26.2632H44.305ZM51.2469 25.2609L53.3103 30.7437L55.3688 25.2609H56.9753V32.4141H55.7372V30.0559L55.8601 26.9018L53.7475 32.4141H52.8583L50.7507 26.9067L50.8735 30.0559V32.4141H49.6355V25.2609H51.2469ZM63.9073 30.0854C63.8353 30.8485 63.5536 31.4446 63.0623 31.8736C62.571 32.2994 61.9176 32.5123 61.1021 32.5123C60.5322 32.5123 60.0294 32.378 59.5938 32.1095C59.1615 31.8376 58.8274 31.4528 58.5916 30.9549C58.3558 30.4571 58.233 29.879 58.2231 29.2207V28.5526C58.2231 27.8779 58.3427 27.2834 58.5818 26.7692C58.8209 26.255 59.1631 25.8587 59.6086 25.5803C60.0573 25.3019 60.5748 25.1627 61.161 25.1627C61.9504 25.1627 62.5858 25.3772 63.0672 25.8063C63.5487 26.2353 63.8287 26.8412 63.9073 27.624H62.6693C62.6103 27.1098 62.4597 26.7397 62.2173 26.5137C61.9782 26.2844 61.6261 26.1698 61.161 26.1698C60.6206 26.1698 60.2047 26.368 59.9132 26.7643C59.625 27.1573 59.4776 27.7354 59.471 28.4985V29.1323C59.471 29.9052 59.6086 30.4948 59.8837 30.9009C60.1621 31.307 60.5682 31.5101 61.1021 31.5101C61.5901 31.5101 61.9569 31.4004 62.2026 31.1809C62.4482 30.9615 62.6038 30.5963 62.6693 30.0854H63.9073ZM69.0265 30.7486H66.2557L65.676 32.4141H64.3839L67.0859 25.2609H68.2012L70.9082 32.4141H69.6112L69.0265 30.7486ZM66.6045 29.7464H68.6777L67.6411 26.779L66.6045 29.7464Z" fill="#5D5D5D"/>
</g>
<defs>
<clipPath id="clip0_15050:156437">
<rect width="37.7308" height="15.0923" fill="white" transform="translate(37.7637 22.1562)"/>
</clipPath>
</defs>
</svg>
