<svg width="112" height="58" viewBox="0 0 112 58" fill="none" xmlns="http://www.w3.org/2000/svg">
<path d="M70.6493 2.66205H5.45207C3.59023 2.66205 2.08091 4.17137 2.08091 6.0332V43.939C2.08091 45.8008 3.59023 47.3101 5.45206 47.3101H98.3817C104.917 47.3101 109.823 41.3393 108.556 34.9283L108.292 33.5941C104.74 15.618 88.9731 2.66205 70.6493 2.66205Z" stroke="#5D5D5D" stroke-width="1.25769" stroke-linejoin="round"/>
<circle cx="20.3174" cy="51.7847" r="4.40192" stroke="#D8D8D8" stroke-width="1.25769"/>
<circle cx="34.1521" cy="51.7847" r="4.40192" stroke="#D8D8D8" stroke-width="1.25769"/>
<path fill-rule="evenodd" clip-rule="evenodd" d="M20.3174 46.7539L34.152 46.7539L30.3735 51.1651H24.0415L20.3174 46.7539Z" fill="#D8D8D8"/>
<path d="M82.0026 51.7847C82.0026 54.2317 80.0754 56.1866 77.7331 56.1866C75.3908 56.1866 73.4636 54.2317 73.4636 51.7847C73.4636 49.3376 75.3908 47.3828 77.7331 47.3828C80.0754 47.3828 82.0026 49.3376 82.0026 51.7847Z" stroke="#D8D8D8" stroke-width="1.25769"/>
<path d="M95.4731 51.7847C95.4731 54.2317 93.5459 56.1866 91.2036 56.1866C88.8613 56.1866 86.934 54.2317 86.934 51.7847C86.934 49.3376 88.8613 47.3828 91.2036 47.3828C93.5459 47.3828 95.4731 49.3376 95.4731 51.7847Z" stroke="#D8D8D8" stroke-width="1.25769"/>
<path fill-rule="evenodd" clip-rule="evenodd" d="M77.7332 46.7539L91.2037 46.7539L87.5246 51.1651H81.3593L77.7332 46.7539Z" fill="#D8D8D8"/>
<g clip-path="url(#clip0_15050:156436)">
<rect x="37.2964" y="22.1562" width="37.7308" height="15.0923" rx="2.51538" fill="#D8D8D8"/>
<path d="M42.5945 32.4141V25.2609H44.7071C45.3392 25.2609 45.8992 25.4018 46.3873 25.6834C46.8785 25.9651 47.2585 26.3647 47.527 26.8822C47.7956 27.3997 47.9299 27.9925 47.9299 28.6606V29.0193C47.9299 29.6973 47.794 30.2933 47.5221 30.8076C47.2536 31.3218 46.8687 31.7181 46.3676 31.9965C45.8698 32.2749 45.2982 32.4141 44.653 32.4141H42.5945ZM43.8375 26.2632V31.4217H44.6481C45.2999 31.4217 45.7994 31.2186 46.1465 30.8125C46.497 30.4031 46.6755 29.8168 46.682 29.0537V28.6557C46.682 27.8795 46.5134 27.2867 46.176 26.8773C45.8387 26.4679 45.349 26.2632 44.7071 26.2632H43.8375ZM50.7794 25.2609L52.8428 30.7437L54.9012 25.2609H56.5078V32.4141H55.2697V30.0559L55.3925 26.9018L53.28 32.4141H52.3908L50.2832 26.9067L50.406 30.0559V32.4141H49.1679V25.2609H50.7794ZM63.4398 30.0854C63.3677 30.8485 63.0861 31.4446 62.5948 31.8736C62.1035 32.2994 61.4501 32.5123 60.6346 32.5123C60.0647 32.5123 59.5619 32.378 59.1263 32.1095C58.694 31.8376 58.3599 31.4528 58.1241 30.9549C57.8883 30.4571 57.7654 29.879 57.7556 29.2207V28.5526C57.7556 27.8779 57.8752 27.2834 58.1143 26.7692C58.3534 26.255 58.6956 25.8587 59.141 25.5803C59.5898 25.3019 60.1072 25.1627 60.6935 25.1627C61.4828 25.1627 62.1182 25.3772 62.5997 25.8063C63.0812 26.2353 63.3612 26.8412 63.4398 27.624H62.2018C62.1428 27.1098 61.9921 26.7397 61.7498 26.5137C61.5107 26.2844 61.1586 26.1698 60.6935 26.1698C60.1531 26.1698 59.7371 26.368 59.4456 26.7643C59.1574 27.1573 59.01 27.7354 59.0035 28.4985V29.1323C59.0035 29.9052 59.141 30.4948 59.4162 30.9009C59.6946 31.307 60.1007 31.5101 60.6346 31.5101C61.1226 31.5101 61.4894 31.4004 61.735 31.1809C61.9807 30.9615 62.1363 30.5963 62.2018 30.0854H63.4398ZM68.559 30.7486H65.7881L65.2084 32.4141H63.9163L66.6184 25.2609H67.7336L70.4406 32.4141H69.1436L68.559 30.7486ZM66.137 29.7464H68.2102L67.1736 26.779L66.137 29.7464Z" fill="#5D5D5D"/>
</g>
<path d="M86.6692 4.00738V18.832C86.6692 28.4258 94.4465 36.2031 104.04 36.2031H108.202L105.587 22.2034C103.81 12.6962 96.1874 5.40294 86.6692 4.00738Z" fill="#2616E3" stroke="#5D5D5D" stroke-width="1.25769"/>
<path d="M98.8336 22.9341C98.5102 23.3558 98.0619 23.6751 97.4887 23.8921C96.9155 24.1091 96.2646 24.2175 95.5359 24.2175C94.7866 24.2175 94.1234 24.0476 93.5461 23.7078C92.9689 23.368 92.5226 22.8829 92.2074 22.2524C91.8962 21.6178 91.7345 20.8788 91.7222 20.0355V19.3354C91.7222 17.9844 92.0457 16.9301 92.6925 16.1727C93.3394 15.4112 94.2421 15.0305 95.4007 15.0305C96.3956 15.0305 97.1858 15.2761 97.7712 15.7674C98.3567 16.2587 98.7087 16.967 98.8275 17.8922H97.3045C97.1325 16.8155 96.5082 16.2771 95.4315 16.2771C94.7355 16.2771 94.2053 16.5289 93.8409 17.0325C93.4806 17.532 93.2944 18.2668 93.2821 19.2371V19.9249C93.2821 20.8911 93.4847 21.6424 93.89 22.1787C94.2994 22.7109 94.8665 22.9771 95.5911 22.9771C96.3854 22.9771 96.9503 22.7969 97.2861 22.4366V20.6864H95.4437V19.5073H98.8336V22.9341Z" fill="#D8D8D8"/>
<defs>
<clipPath id="clip0_15050:156436">
<rect width="37.7308" height="15.0923" fill="white" transform="translate(37.2964 22.1562)"/>
</clipPath>
</defs>
</svg>
